<svg xmlns="http://www.w3.org/2000/svg" style="background:0 0;background-color:transparent;color-scheme:light dark" viewBox="0 0 727 335"><path fill="none" d="M0 0h727v335H0z"/><rect width="724.7" height="333" x=".5" y=".5" fill="#171717" stroke="#515151" rx="8" ry="8"/><g fill="#c4c4c4" clip-path="url(#terminalMask)" font-family="monospace" font-size="14"><g aria-label="local@livecd ~$ cat - | sudo -s [02/28 19:55:42]"><path fill="#ffd75f" d="M24.1 43.8v7h-3v1h6.7v-1h-2.5v-6.9c0-1.3-.7-2-2-2h-1.9v1h1.8c.6 0 .9.3.9 1zm8.5 8.2c2 0 3.4-1.5 3.4-4 0-2.3-1.4-3.8-3.4-3.8s-3.4 1.5-3.4 3.9 1.3 3.9 3.4 3.9zm0-1.2c-1.4 0-2.2-1-2.2-2.7 0-1.7.8-2.8 2.2-2.8 1.4 0 2.2 1 2.2 2.8 0 1.7-.8 2.7-2.2 2.7zm8.6 1.2c1.6 0 2.9-1.1 3.2-2.7l-1.3-.1a2 2 0 0 1-1.9 1.6c-1.4 0-2.2-1-2.2-2.7 0-1.7.8-2.8 2.2-2.8 1 0 1.6.6 1.9 1.6l1.2-.1a3 3 0 0 0-3.1-2.6c-2 0-3.4 1.5-3.4 3.9 0 2.3 1.3 3.9 3.4 3.9zm7.2 0c1 0 2-.5 2.4-1.3.2.8.7 1.1 1.5 1.1h.6v-1h-.5c-.3 0-.4-.1-.4-.5v-3c0-2-1-3-2.9-3-1.6 0-2.7.9-3 2.3h1.2c.3-.8.8-1.3 1.8-1.3 1.1 0 1.7.6 1.7 2l-2.5.4c-1.6.3-2.3 1-2.3 2.3 0 1.2 1 2 2.4 2zm.1-1c-.8 0-1.3-.5-1.3-1.2 0-.6.3-1 1.3-1.1l2.3-.5v.7c0 1.2-.8 2-2.3 2zm9.2-7.2v7h-3v1h6.7v-1H59v-6.9c0-1.3-.7-2-2-2h-2v1h1.8c.6 0 .9.3.9 1z"/><path fill="#5f5f5f" d="m68 52.2-.4-.9a4 4 0 0 1-1.7.5c-1.5 0-2.6-1.3-2.6-3.9 0-2.4 1-5 3.4-5 1.4 0 2.4 1.6 2.4 4 0 1.9-.4 2.9-.8 2.9-.3 0-.5-.6-.4-1.6l.3-3.3h-1v.5a1 1 0 0 0-1.1-.6c-1.5 0-2.2 2.1-2.2 3.6 0 1.3.7 2.3 1.6 2.3.7 0 1.2-.5 1.5-1.2.1.8.6 1.2 1.1 1.2 1.2 0 2-1.7 2-3.8 0-3-1.4-5-3.4-5-3 0-4.4 3.1-4.4 6 0 3.1 1.6 4.9 3.5 4.9.8 0 1.5-.2 2.2-.6zm-2.2-2.4c-.5 0-.7-.6-.7-1.6 0-.8.3-2.6 1.1-2.6.5 0 .8.6.8 1.5 0 .7-.2 2.7-1.2 2.7z"/><path fill="#5fd7ff" d="M74.5 43.8v7h-3v1h6.7v-1h-2.5v-6.9c0-1.3-.7-2-2-2h-1.9v1h1.8c.6 0 .9.3.9 1zm5.4 8h6.7v-1h-2.5v-6.4h-4v1h2.8v5.4h-3zm2.9-8.6H84v-1.4h-1.2zm7.9 8.6H92l2.7-7.4h-1.2l-2.2 6.2-2.2-6.2H88zm9.2.2c1.6 0 2.7-1 3.1-2.3l-1.2-.1c-.3.8-1 1.2-1.9 1.2-1.3 0-2-.8-2.1-2.3h5.4V48c0-2.5-1.4-3.9-3.3-3.9-2 0-3.4 1.5-3.4 3.9 0 2.3 1.3 3.9 3.4 3.9zm2-4.6h-4.1c.2-1.4 1-2 2-2 1.2 0 2 .6 2 2zm6.5 4.6c1.6 0 2.9-1.1 3.2-2.7l-1.3-.1a2 2 0 0 1-1.9 1.6c-1.4 0-2.2-1-2.2-2.7 0-1.7.8-2.8 2.2-2.8 1 0 1.6.6 1.9 1.6l1.2-.1a3 3 0 0 0-3.1-2.6c-2 0-3.4 1.5-3.4 3.9 0 2.3 1.3 3.9 3.4 3.9zm7.9 0c1 0 1.9-.5 2.3-1.3v1.1h1v-10h-1.1v3.6a2.6 2.6 0 0 0-2.2-1.2c-2 0-3.2 1.5-3.2 3.9s1.2 3.9 3.2 3.9zm0-1.2c-1.2 0-2-1-2-2.7 0-1.7.8-2.8 2-2.8 1.4 0 2.2 1 2.2 2.8 0 1.7-.8 2.7-2.2 2.7z"/><path d="M130.3 48.5h1.2c0-1 .2-1.6.7-1.6.9 0 .7 1.6 2.3 1.6 1.6 0 2-1.6 2-2.7h-1.2c0 1-.3 1.6-.8 1.6-.8 0-.7-1.6-2.3-1.6-1.5 0-2 1.6-2 2.7z"/><path fill="#00ff5f" d="M141.3 53h1v-1c1.9-.1 3.1-1.2 3.1-2.6 0-1.6-.8-2.5-3-3.1v-3.4c1 .2 1.4 1 1.6 2l1.2-.1c-.2-1.7-1.1-2.9-2.8-3.1v-1.2h-1v1.2c-1.8.1-2.9 1.2-2.9 2.8 0 1.4.8 2.1 2.8 2.7v3.6c-1-.3-1.6-1-1.8-2.3l-1.2.1a3.5 3.5 0 0 0 3 3.4zm-1.5-8.6c0-.8.6-1.4 1.5-1.6V46c-1.2-.4-1.5-.7-1.5-1.5zm2.6 6.4v-3.3c1.4.5 1.8 1 1.8 1.8 0 1-.7 1.4-1.8 1.5z"/><path fill="#33a2e6" d="M158.8 52c1.6 0 2.9-1.1 3.2-2.7l-1.3-.1a2 2 0 0 1-1.9 1.6c-1.4 0-2.2-1-2.2-2.7 0-1.7.8-2.8 2.2-2.8 1 0 1.6.6 1.9 1.6l1.2-.1a3 3 0 0 0-3.1-2.6c-2 0-3.4 1.5-3.4 3.9 0 2.3 1.3 3.9 3.4 3.9zm7.2 0c1 0 2-.5 2.4-1.3.2.8.7 1.1 1.5 1.1h.6v-1h-.5c-.3 0-.4-.1-.4-.5v-3c0-2-1-3-2.9-3-1.6 0-2.7.9-3 2.3h1.2c.3-.8.8-1.3 1.8-1.3 1.1 0 1.7.6 1.7 2l-2.5.4c-1.6.3-2.3 1-2.3 2.3 0 1.2 1 2 2.4 2zm.1-1c-.8 0-1.3-.5-1.3-1.2 0-.6.3-1 1.3-1.1l2.3-.5v.7c0 1.2-.8 2-2.3 2zm10.4.8h2v-1h-2c-.7 0-1-.4-1-1v-4.4h3v-1h-3v-2h-1.1v2h-2.5v1h2.5v4.4c0 1.3.7 2 2 2z"/><path fill="#e6e6e6" d="M190.1 48.3h4.2v-1.1h-4.2zm18.3 4.8h1.2V41h-1.2z"/><path fill="#33a2e6" d="M226 52c1.6 0 2.9-.8 2.9-2.1s-.6-1.9-3-2.2c-1.3-.3-1.8-.5-1.8-1.2s.5-1.2 1.6-1.2c1 0 1.6.6 1.8 1.4l1.2-.1c-.2-1.3-1.1-2.4-3-2.4-1.8 0-2.8 1-2.8 2.3 0 1.2.7 1.8 2.8 2.2 1.6.3 2 .5 2 1.2 0 .6-.7 1-1.8 1s-1.8-.6-2-1.5h-1.2c.1 1.5 1.3 2.6 3.2 2.6zm7.7 0c1 0 1.8-.5 2.2-1.4v1.2h1.2v-7.4h-1.2v4.4c0 1.3-.7 2.1-1.9 2.1-1 0-1.6-.6-1.6-2v-4.5h-1.1v4.8c0 1.7 1 2.8 2.4 2.8zm8.6 0c1 0 1.9-.5 2.3-1.3v1.1h1v-10h-1.1v3.6a2.6 2.6 0 0 0-2.2-1.2c-2 0-3.2 1.5-3.2 3.9s1.2 3.9 3.2 3.9zm0-1.2c-1.2 0-2-1-2-2.7 0-1.7.8-2.8 2-2.8 1.4 0 2.2 1 2.2 2.8 0 1.7-.8 2.7-2.2 2.7zM251 52c2 0 3.4-1.5 3.4-4 0-2.3-1.4-3.8-3.4-3.8s-3.4 1.5-3.4 3.9S249 52 251 52zm0-1.2c-1.4 0-2.2-1-2.2-2.7 0-1.7.8-2.8 2.2-2.8 1.4 0 2.2 1 2.2 2.8 0 1.7-.8 2.7-2.2 2.7z"/><path fill="#e6e6e6" d="M265.7 48.3h4.2v-1.1h-4.2zm10.6 3.7c1.7 0 3-.8 3-2.1s-.6-1.9-3-2.2c-1.3-.3-1.8-.5-1.8-1.2s.5-1.2 1.6-1.2c1 0 1.6.6 1.8 1.4l1.2-.1c-.2-1.3-1.1-2.4-3-2.4-1.8 0-2.8 1-2.8 2.3 0 1.2.7 1.8 2.8 2.2 1.6.3 2 .5 2 1.2 0 .6-.7 1-1.8 1s-1.8-.6-2-1.5h-1.2c.1 1.5 1.3 2.6 3.2 2.6z"/><path fill="#5f5f5f" d="M555.6 53v-1h-3V42h3v-1h-4v12z"/><path fill="#d7875f" d="M561.8 52c2.2 0 3.5-2 3.5-5.2s-1.3-5.2-3.5-5.2-3.5 2-3.5 5.2c0 3.3 1.3 5.2 3.5 5.2zm0-1.2c-.5 0-1-.2-1.3-.5l3.2-5.9c.2.7.3 1.5.3 2.4 0 2.5-.8 4-2.2 4zm-2.2-4c0-2.4.8-4 2.2-4 .5 0 1 .2 1.3.6l-3.2 5.8c-.2-.6-.3-1.4-.3-2.4zm7.1 5h7v-1.2h-5.5c0-.7 1-1.8 2.8-2.7 2-1.1 2.7-1.9 2.7-3.4 0-1.7-1.2-2.9-3.3-2.9-2.1 0-3.4 1.3-3.6 3.2l1.2.1c.2-1.3 1-2 2.4-2s2 .6 2 1.6-.5 1.5-1.9 2.2c-3 1.6-3.8 3-3.8 5.1zm9.2 1.5h1.1l4.3-12h-1.1zm7.6-1.5h7v-1.2H585c0-.7 1-1.8 2.8-2.7 2-1.1 2.7-1.9 2.7-3.4 0-1.7-1.2-2.9-3.3-2.9-2.1 0-3.4 1.3-3.6 3.2l1.2.1c.2-1.3 1-2 2.4-2s2 .6 2 1.6-.5 1.5-1.9 2.2c-3 1.6-3.8 3-3.8 5.1zm11.9.2c2 0 3.5-1 3.5-3 0-1.2-.7-2.1-2-2.5 1-.4 1.5-1 1.5-2.1 0-1.6-1.2-2.8-3-2.8s-3 1.2-3 2.8c0 1 .5 1.7 1.4 2-1.2.5-1.9 1.4-1.9 2.7 0 1.9 1.5 3 3.5 3zm0-1.2c-1.3 0-2.2-.5-2.2-1.8 0-1.2.7-2 2.2-2 1.5 0 2.2.8 2.2 2 0 1.3-.9 1.8-2.2 1.8zm0-4.8c-1 0-1.8-.6-1.8-1.6s.7-1.6 1.8-1.6c1 0 1.8.6 1.8 1.6s-.7 1.6-1.8 1.6z"/><path fill="#d75f5f" d="M608.8 51.8h6.8v-1.1h-2.4v-8.8h-1c0 1-.4 1.5-1.5 1.5h-1.3v1h2.6v6.3h-3.2zm11.8-10.2c-2 0-3.5 1.4-3.5 3.6 0 2 1.3 3.4 3.2 3.4a3 3 0 0 0 2.5-1.3c-.2 2.4-1.1 3.5-2.6 3.5-1.1 0-1.6-.5-1.8-1.2H617c.4 1.5 1.3 2.4 3 2.4 3 0 4-2.7 4-6 0-2.8-1.3-4.4-3.5-4.4zm0 1.2c1.3 0 2.2 1 2.2 2.4 0 1.3-1 2.2-2.4 2.2-1.2 0-2-.9-2-2.2 0-1.5.8-2.4 2.1-2.4zm7.6 9h1.6v-1.7h-1.6zm0-5.4h1.6v-1.7h-1.6zm9.2 5.6c2 0 3.4-1.4 3.4-3.4s-1.3-3.4-3.2-3.4a3 3 0 0 0-2 .8l.4-3h4.2v-1h-5.3l-.7 5.5h1.3c.3-.7 1.1-1 1.9-1 1.3 0 2.1.8 2.1 2.2 0 1.4-.8 2.2-2.1 2.2-1.2 0-2-.5-2.1-1.6H634c.2 1.7 1.4 2.8 3.4 2.8zm8.4 0c2 0 3.4-1.4 3.4-3.4s-1.3-3.4-3.2-3.4a3 3 0 0 0-2 .8l.4-3h4.2v-1h-5.3l-.7 5.5h1.3c.3-.7 1.1-1 1.9-1 1.3 0 2.1.8 2.1 2.2 0 1.4-.8 2.2-2.1 2.2-1.2 0-2-.5-2.1-1.6h-1.3c.2 1.7 1.4 2.8 3.4 2.8zm7.6-.2h1.6v-1.7h-1.6zm0-5.4h1.6v-1.7h-1.6zm10.4 5.4h1.2v-2.2h1.2v-1.1H665v-6.6h-1.3l-4.7 6.7v1h4.8zm-3.4-3.3 3.4-4.8v4.8zm7.1 3.3h7v-1.2H669c0-.7 1-1.8 2.8-2.7 2-1.1 2.7-1.9 2.7-3.4 0-1.7-1.2-2.9-3.3-2.9-2.1 0-3.4 1.3-3.6 3.2l1.2.1c.2-1.3 1-2 2.4-2s2 .6 2 1.6-.5 1.5-1.9 2.2c-3 1.6-3.8 3-3.8 5.1z"/><path fill="#5f5f5f" d="M677.2 53h4V41h-4v1.1h3V52h-3z"/></g><path d="M26.4 69.9v-1.1h-3v-9.9h3v-1h-4v12zm6.3-1.1c1.7 0 3-.8 3-2.1s-.6-1.9-3-2.2c-1.3-.3-1.8-.5-1.8-1.2s.5-1.2 1.6-1.2c1 0 1.6.6 1.8 1.4l1.2-.1c-.2-1.3-1.1-2.4-3-2.4-1.8 0-2.8 1-2.8 2.3 0 1.2.7 1.8 2.8 2.2 1.6.3 2 .5 2 1.2 0 .6-.7 1-1.8 1s-1.8-.6-2-1.5h-1.2c.1 1.5 1.3 2.6 3.2 2.6zm7.8 0c1 0 1.8-.5 2.2-1.4v1.2H44v-7.4h-1.2v4.4c0 1.3-.7 2.1-1.9 2.1-1 0-1.6-.6-1.6-2v-4.5h-1.1V66c0 1.7 1 2.8 2.4 2.8zm8.6 0c1 0 1.9-.5 2.3-1.3v1.1h1v-10h-1.1v3.6a2.6 2.6 0 0 0-2.2-1.2c-2 0-3.2 1.5-3.2 3.9s1.2 3.9 3.2 3.9zm0-1.2c-1.2 0-2-1-2-2.7 0-1.7.8-2.8 2-2.8 1.4 0 2.2 1 2.2 2.8 0 1.7-.8 2.7-2.2 2.7zm8.7 1.2c2 0 3.4-1.5 3.4-4 0-2.3-1.4-3.8-3.4-3.8s-3.4 1.5-3.4 3.9 1.3 3.9 3.4 3.9zm0-1.2c-1.4 0-2.2-1-2.2-2.7 0-1.7.8-2.8 2.2-2.8 1.4 0 2.2 1 2.2 2.8 0 1.7-.8 2.7-2.2 2.7zM64 70h4V58h-4v1h3v9.9h-3zm16 .8h1v-3c.4.6 1.2 1 2.2 1 2.2 0 3.2-1.8 3.2-3.8 0-2-1-3.9-3.2-3.9-1 0-1.8.5-2.3 1.4v-1.2h-1zm3.2-3c-1.3 0-2.1-1-2.1-2.8 0-1.8.8-2.8 2.1-2.8s2 1 2 2.8c0 1.7-.7 2.7-2 2.7zm7.2 1c1 0 2-.4 2.4-1.2.2.8.7 1.1 1.5 1.1h.6v-1h-.5c-.3 0-.4-.1-.4-.5v-3c0-2-1-3-2.9-3-1.6 0-2.7.9-3 2.3h1.2c.3-.8.8-1.3 1.8-1.3 1.1 0 1.7.6 1.7 2l-2.5.4c-1.6.3-2.3 1-2.3 2.3 0 1.2 1 2 2.4 2zm.1-1c-.8 0-1.3-.4-1.3-1 0-.7.3-1 1.3-1.2l2.3-.5v.7c0 1.2-.8 2-2.3 2zm9.4 1c1.7 0 3-.7 3-2s-.6-1.9-3-2.2c-1.3-.3-1.8-.5-1.8-1.2s.5-1.2 1.6-1.2c1 0 1.6.6 1.8 1.4l1.2-.1c-.2-1.3-1.1-2.4-3-2.4-1.8 0-2.8 1-2.8 2.3 0 1.2.7 1.8 2.8 2.2 1.6.3 2 .5 2 1.2 0 .6-.7 1-1.8 1s-1.8-.6-2-1.5h-1.2c.1 1.5 1.3 2.6 3.2 2.6zm8.4 0c1.7 0 3-.7 3-2s-.6-1.9-3-2.2c-1.3-.3-1.8-.5-1.8-1.2s.5-1.2 1.6-1.2c1 0 1.6.6 1.8 1.4l1.2-.1c-.2-1.3-1.1-2.4-3-2.4-1.8 0-2.8 1-2.8 2.3 0 1.2.7 1.8 2.8 2.2 1.6.3 2 .5 2 1.2 0 .6-.7 1-1.8 1s-1.8-.6-2-1.5h-1.2c.1 1.5 1.3 2.6 3.2 2.6zm5.9-.1h1.4l1-4.6 1 4.6h1.5l1.4-7.4h-1.3l-1 6.2-1-5.2H116l-1 5.2-1-6.2h-1.3zm10.8.2c2 0 3.4-1.5 3.4-4 0-2.3-1.4-3.8-3.4-3.8s-3.4 1.5-3.4 3.9 1.3 3.9 3.4 3.9zm0-1.2c-1.4 0-2.2-1-2.2-2.7 0-1.7.8-2.8 2.2-2.8 1.4 0 2.2 1 2.2 2.8 0 1.7-.8 2.7-2.2 2.7zm5.5 1h5.4v-1h-2.3V64c0-1.2.6-1.9 1.6-1.9h1.6v-1h-1.6c-.9 0-1.5.4-1.7 1.4l-.1-1.4h-3v1h2v5.4h-2zm11 .2c1 0 1.9-.5 2.3-1.3v1.1h1v-10h-1.1v3.6a2.6 2.6 0 0 0-2.2-1.2c-2 0-3.2 1.5-3.2 3.9s1.2 3.9 3.2 3.9zm0-1.2c-1.2 0-2-1-2-2.7 0-1.7.8-2.8 2-2.8 1.4 0 2.2 1 2.2 2.8 0 1.7-.8 2.7-2.2 2.7zm16.1-6.9v.5h-2.2v1h2.2v6.4h1.2v-6.4h2.9v-1h-2.9v-.5c0-.6.3-1 1-1h2v-1h-2c-1.5 0-2.2.7-2.2 2zm9.4 8c2 0 3.4-1.4 3.4-3.8s-1.4-4-3.4-4-3.4 1.5-3.4 3.9 1.3 3.9 3.4 3.9zm0-1c-1.4 0-2.2-1-2.2-2.8 0-1.7.8-2.8 2.2-2.8 1.4 0 2.2 1 2.2 2.8 0 1.7-.8 2.7-2.2 2.7zm5.5.9h5.4v-1h-2.3V64c0-1.2.6-1.9 1.6-1.9h1.6v-1h-1.6c-.9 0-1.5.4-1.7 1.4l-.1-1.4h-3v1h2v5.4h-2zm19.6-8v7h-3v1h6.7v-1h-2.5v-6.9c0-1.3-.7-2-2-2h-1.9v1h1.8c.6 0 .9.3.9 1zm8.5 8.2c2 0 3.4-1.5 3.4-4 0-2.3-1.4-3.8-3.4-3.8s-3.4 1.5-3.4 3.9 1.3 3.9 3.4 3.9zm0-1.2c-1.4 0-2.2-1-2.2-2.7 0-1.7.8-2.8 2.2-2.8 1.4 0 2.2 1 2.2 2.8 0 1.7-.8 2.7-2.2 2.7zm8.6 1.2c1.6 0 2.9-1.1 3.2-2.7L211 66a2 2 0 0 1-1.9 1.6c-1.4 0-2.2-1-2.2-2.7 0-1.7.8-2.8 2.2-2.8 1 0 1.6.6 1.9 1.6l1.2-.1a3 3 0 0 0-3.1-2.6c-2 0-3.4 1.5-3.4 3.9 0 2.3 1.3 3.9 3.4 3.9zm7.2 0c1 0 2-.5 2.4-1.3.2.8.7 1.1 1.5 1.1h.6v-1h-.5c-.3 0-.4-.1-.4-.5v-3c0-2-1-3-2.9-3-1.6 0-2.7.9-3 2.3h1.2c.3-.8.8-1.3 1.8-1.3 1.1 0 1.7.6 1.7 2l-2.5.4c-1.6.3-2.3 1-2.3 2.3 0 1.2 1 2 2.4 2zm.1-1c-.8 0-1.3-.5-1.3-1.2 0-.6.3-1 1.3-1.1l2.3-.5v.7c0 1.2-.8 2-2.3 2zm9.2-7.2v7h-3v1h6.7v-1H227v-6.9c0-1.3-.7-2-2-2h-2v1h1.8c.6 0 .9.3.9 1zm7.7 8h1.6V67h-1.6zm0-5.4h1.6v-1.7h-1.6zm16.6 5.6c1 0 2-.5 2.4-1.3.2.8.7 1.1 1.5 1.1h.6v-1h-.5c-.3 0-.4-.1-.4-.5v-3c0-2-1-3-2.9-3-1.6 0-2.7.9-3 2.3h1.2c.3-.8.8-1.3 1.8-1.3 1.1 0 1.7.6 1.7 2l-2.5.4c-1.6.3-2.3 1-2.3 2.3 0 1.2 1 2 2.4 2zm.1-1c-.8 0-1.3-.5-1.3-1.2 0-.6.3-1 1.3-1.1l2.3-.5v.7c0 1.2-.8 2-2.3 2zm9.4 1c1.7 0 3-.8 3-2.1s-.6-1.9-3-2.2c-1.3-.3-1.8-.5-1.8-1.2s.5-1.2 1.6-1.2c1 0 1.6.6 1.8 1.4l1.2-.1c-.2-1.3-1.1-2.4-3-2.4-1.8 0-2.8 1-2.8 2.3 0 1.2.7 1.8 2.8 2.2 1.6.3 2 .5 2 1.2 0 .6-.7 1-1.8 1s-1.8-.6-2-1.5h-1.2c.1 1.5 1.3 2.6 3.2 2.6zm8 0c1 0 1.9-.5 2.3-1.3v1.1h1v-10h-1.1v3.6a2.6 2.6 0 0 0-2.2-1.2c-2 0-3.2 1.5-3.2 3.9s1.2 3.9 3.2 3.9zm0-1.2c-1.2 0-2-1-2-2.7 0-1.7.8-2.8 2-2.8 1.4 0 2.2 1 2.2 2.8 0 1.7-.8 2.7-2.2 2.7zm7.7-6.9v.5H273v1h2.2v6.4h1.2v-6.4h2.9v-1h-2.9v-.5c0-.6.3-1 1-1h2v-1h-2c-1.5 0-2.2.7-2.2 2z" aria-label="[sudo] password for local: asdf"/><path d="M24.4 102.4c2 0 3.4-1 3.4-2.6 0-1.7-.9-2.5-3.3-3.2-1.9-.5-2.4-.9-2.4-1.8 0-1 .8-1.6 2-1.6 1.4 0 2 .9 2.2 2h1.3c-.2-1.8-1.4-3.2-3.4-3.2s-3.3 1.2-3.3 2.9c0 1.4.8 2.1 2.8 2.7 2.3.7 2.8 1.2 2.8 2.1 0 1-.7 1.5-2.1 1.5-1.4 0-2.3-.8-2.5-2.3l-1.3.1c.2 2 1.7 3.4 3.8 3.4zm8.2 0c2 0 3.4-1.5 3.4-4 0-2.3-1.4-3.8-3.4-3.8s-3.4 1.5-3.4 3.9 1.3 3.9 3.4 3.9zm0-1.2c-1.4 0-2.2-1-2.2-2.7 0-1.7.8-2.8 2.2-2.8 1.4 0 2.2 1 2.2 2.8 0 1.7-.8 2.7-2.2 2.7zm5.5 1h5.4v-1h-2.3v-3.5c0-1.2.6-1.9 1.6-1.9h1.6v-1h-1.6c-.9 0-1.5.4-1.7 1.4l-.1-1.4h-3v1h2v5.4h-2zm8.4 0h5.4v-1h-2.3v-3.5c0-1.2.6-1.9 1.6-1.9h1.6v-1h-1.6c-.9 0-1.5.4-1.7 1.4l-.1-1.4h-3v1h2v5.4h-2zm9 2.1h1c1 0 1.5-.4 1.8-1.2l3-8.3H60l-2 6.2-2.3-6.2h-1.2L57 102h.4l-.2.7c-.2.3-.4.5-1 .5h-.8zm10 0h.7l.8-2.3v-1.5h-1.6v1.7h.7zm18.6-2.1h2v-1h-2c-.7 0-1-.4-1-1v-4.4h3v-1h-3v-2H82v2h-2.5v1H82v4.4c0 1.3.7 2 2 2zm4.4 0h5.4v-1h-2.3v-3.5c0-1.2.6-1.9 1.6-1.9h1.6v-1h-1.6c-.9 0-1.5.4-1.7 1.4l-.1-1.4h-3v1h2v5.4h-2zm9 2.1h1c1 0 1.5-.4 1.8-1.2l3-8.3H102l-2 6.2-2.3-6.2h-1.2L99 102h.4l-.2.7c-.2.3-.4.5-1 .5h-.8zm18.1-2c1 0 2-.4 2.4-1.2.2.8.7 1.1 1.5 1.1h.6v-1h-.5c-.3 0-.4-.1-.4-.5v-3c0-2-1-3-2.9-3-1.6 0-2.7.9-3 2.3h1.2c.3-.8.8-1.3 1.8-1.3 1.1 0 1.7.6 1.7 2l-2.5.4c-1.6.3-2.3 1-2.3 2.3 0 1.2 1 2 2.4 2zm.1-1c-.8 0-1.3-.4-1.3-1 0-.7.3-1 1.3-1.2l2.3-.5v.7c0 1.2-.8 2-2.3 2zm9.3 3.2c2 0 3.2-1 3.2-2.8v-7h-1.1V96c-.3-.9-1.2-1.4-2.3-1.4-1.8 0-3.2 1.5-3.2 3.6s1.4 3.6 3.3 3.6c1 0 1.8-.5 2.1-1.3v1.2c0 1.1-.7 1.6-2 1.6-1.2 0-1.7-.4-2-1h-1c.3 1.3 1.5 2.2 3 2.2zm0-3.8c-1.3 0-2.1-1-2.1-2.5s.7-2.5 2-2.5 2.2 1 2.1 2.5c0 1.5-.8 2.5-2 2.5zm7.4 1.7c1 0 2-.5 2.4-1.3.2.8.7 1.1 1.5 1.1h.6v-1h-.5c-.3 0-.4-.1-.4-.5v-3c0-2-1-3-2.9-3-1.6 0-2.7.9-3 2.3h1.2c.3-.8.8-1.3 1.8-1.3 1.1 0 1.7.6 1.7 2l-2.5.4c-1.6.3-2.3 1-2.3 2.3 0 1.2 1 2 2.4 2zm.1-1c-.8 0-1.3-.5-1.3-1.2 0-.6.3-1 1.3-1.1l2.3-.5v.7c0 1.2-.8 2-2.3 2zm6.2.8h6.7v-1H143v-6.4h-4v1h2.8v5.4h-3zm2.9-8.6h1.2v-1.4h-1.2zm5.7 8.6h1.2v-4.4c0-1.4.8-2.2 2-2.2 1.1 0 1.5.8 1.5 2.2v4.4h1.2v-4.8c0-1.5-.8-2.8-2.5-2.8-1 0-1.9.5-2.2 1.5v-1.3h-1.2zm10.5 0h1.6v-1.7h-1.6z" aria-label="Sorry, try again."/><path d="M26.4 120.3v-1.1h-3v-9.9h3v-1h-4v12zm6.3-1.1c1.7 0 3-.8 3-2.1s-.6-1.9-3-2.2c-1.3-.3-1.8-.5-1.8-1.2s.5-1.2 1.6-1.2c1 0 1.6.6 1.8 1.4l1.2-.1c-.2-1.3-1.1-2.4-3-2.4-1.8 0-2.8 1-2.8 2.3 0 1.2.7 1.8 2.8 2.2 1.6.3 2 .5 2 1.2 0 .6-.7 1-1.8 1s-1.8-.6-2-1.5h-1.2c.1 1.5 1.3 2.6 3.2 2.6zm7.8 0c1 0 1.8-.5 2.2-1.4v1.2H44v-7.4h-1.2v4.4c0 1.3-.7 2.1-1.9 2.1-1 0-1.6-.6-1.6-2v-4.5h-1.1v4.8c0 1.7 1 2.8 2.4 2.8zm8.6 0c1 0 1.9-.5 2.3-1.3v1.1h1v-10h-1.1v3.6a2.6 2.6 0 0 0-2.2-1.2c-2 0-3.2 1.5-3.2 3.9s1.2 3.9 3.2 3.9zm0-1.2c-1.2 0-2-1-2-2.7 0-1.7.8-2.8 2-2.8 1.4 0 2.2 1 2.2 2.8 0 1.7-.8 2.7-2.2 2.7zm8.7 1.2c2 0 3.4-1.5 3.4-4 0-2.3-1.4-3.8-3.4-3.8s-3.4 1.5-3.4 3.9 1.3 3.9 3.4 3.9zm0-1.2c-1.4 0-2.2-1-2.2-2.7 0-1.7.8-2.8 2.2-2.8 1.4 0 2.2 1 2.2 2.8 0 1.7-.8 2.7-2.2 2.7zm6.2 2.3h4v-12h-4v1h3v9.9h-3zm16 .8h1v-3c.4.6 1.2 1 2.2 1 2.2 0 3.2-1.8 3.2-3.8 0-2-1-3.9-3.2-3.9-1 0-1.8.5-2.3 1.4v-1.2h-1zm3.2-3c-1.3 0-2.1-1-2.1-2.8 0-1.8.8-2.8 2.1-2.8s2 1 2 2.8c0 1.7-.7 2.7-2 2.7zm7.2 1c1 0 2-.4 2.4-1.1.2.7.7 1 1.5 1h.6v-1h-.5c-.3 0-.4-.1-.4-.5v-3c0-2-1-3-2.9-3-1.6 0-2.7.9-3 2.3h1.2c.3-.8.8-1.3 1.8-1.3 1.1 0 1.7.6 1.7 2l-2.5.4c-1.6.3-2.3 1-2.3 2.3 0 1.2 1 2 2.4 2zm.1-1c-.8 0-1.3-.4-1.3-1 0-.7.3-1 1.3-1.2l2.3-.5v.7c0 1.2-.8 2-2.3 2zm9.4 1c1.7 0 3-.7 3-2s-.6-1.9-3-2.2c-1.3-.3-1.8-.5-1.8-1.2s.5-1.2 1.6-1.2c1 0 1.6.6 1.8 1.4l1.2-.1c-.2-1.3-1.1-2.4-3-2.4-1.8 0-2.8 1-2.8 2.3 0 1.2.7 1.8 2.8 2.2 1.6.3 2 .5 2 1.2 0 .6-.7 1-1.8 1s-1.8-.6-2-1.5h-1.2c.1 1.5 1.3 2.6 3.2 2.6zm8.4 0c1.7 0 3-.7 3-2s-.6-1.9-3-2.2c-1.3-.3-1.8-.5-1.8-1.2s.5-1.2 1.6-1.2c1 0 1.6.6 1.8 1.4l1.2-.1c-.2-1.3-1.1-2.4-3-2.4-1.8 0-2.8 1-2.8 2.3 0 1.2.7 1.8 2.8 2.2 1.6.3 2 .5 2 1.2 0 .6-.7 1-1.8 1s-1.8-.6-2-1.5h-1.2c.1 1.5 1.3 2.6 3.2 2.6zm5.9-.1h1.4l1-4.6 1 4.6h1.5l1.4-7.4h-1.3l-1 6.2-1-5.2H116l-1 5.2-1-6.2h-1.3zm10.8.2c2 0 3.4-1.5 3.4-4 0-2.3-1.4-3.8-3.4-3.8s-3.4 1.5-3.4 3.9 1.3 3.9 3.4 3.9zm0-1.2c-1.4 0-2.2-1-2.2-2.7 0-1.7.8-2.8 2.2-2.8 1.4 0 2.2 1 2.2 2.8 0 1.7-.8 2.7-2.2 2.7zm5.5 1h5.4v-1h-2.3v-3.5c0-1.2.6-1.9 1.6-1.9h1.6v-1h-1.6c-.9 0-1.5.4-1.7 1.4l-.1-1.4h-3v1h2v5.4h-2zm11 .2c1 0 1.9-.5 2.3-1.3v1.1h1v-10h-1.1v3.6a2.6 2.6 0 0 0-2.2-1.2c-2 0-3.2 1.5-3.2 3.9s1.2 3.9 3.2 3.9zm0-1.2c-1.2 0-2-1-2-2.7 0-1.7.8-2.8 2-2.8 1.4 0 2.2 1 2.2 2.8 0 1.7-.8 2.7-2.2 2.7zm16.1-6.9v.5h-2.2v1h2.2v6.4h1.2v-6.4h2.9v-1h-2.9v-.5c0-.6.3-1 1-1h2v-1h-2c-1.5 0-2.2.7-2.2 2zm9.4 8c2 0 3.4-1.4 3.4-3.8s-1.4-3.9-3.4-3.9-3.4 1.5-3.4 3.9 1.3 3.9 3.4 3.9zm0-1c-1.4 0-2.2-1-2.2-2.8 0-1.7.8-2.8 2.2-2.8 1.4 0 2.2 1 2.2 2.8 0 1.7-.8 2.7-2.2 2.7zm5.5.9h5.4v-1h-2.3v-3.5c0-1.2.6-1.9 1.6-1.9h1.6v-1h-1.6c-.9 0-1.5.4-1.7 1.4l-.1-1.4h-3v1h2v5.4h-2zm19.6-8v7h-3v1h6.7v-1h-2.5v-7c0-1.3-.7-2-2-2h-1.9v1h1.8c.6 0 .9.3.9 1zm8.5 8.2c2 0 3.4-1.5 3.4-4 0-2.3-1.4-3.8-3.4-3.8s-3.4 1.5-3.4 3.9 1.3 3.9 3.4 3.9zm0-1.2c-1.4 0-2.2-1-2.2-2.7 0-1.7.8-2.8 2.2-2.8 1.4 0 2.2 1 2.2 2.8 0 1.7-.8 2.7-2.2 2.7zm8.6 1.2c1.6 0 2.9-1.1 3.2-2.7l-1.3-.1a2 2 0 0 1-1.9 1.6c-1.4 0-2.2-1-2.2-2.7 0-1.7.8-2.8 2.2-2.8 1 0 1.6.6 1.9 1.6l1.2-.1a3 3 0 0 0-3.1-2.6c-2 0-3.4 1.5-3.4 3.9 0 2.3 1.3 3.9 3.4 3.9zm7.2 0c1 0 2-.5 2.4-1.2.2.7.7 1 1.5 1h.6v-1h-.5c-.3 0-.4-.1-.4-.5v-3c0-2-1-3-2.9-3-1.6 0-2.7.9-3 2.3h1.2c.3-.8.8-1.3 1.8-1.3 1.1 0 1.7.6 1.7 2l-2.5.4c-1.6.3-2.3 1-2.3 2.3 0 1.2 1 2 2.4 2zm.1-1c-.8 0-1.3-.5-1.3-1.2 0-.6.3-1 1.3-1.1l2.3-.5v.7c0 1.2-.8 2-2.3 2zm9.2-7.2v7h-3v1h6.7v-1H227v-7c0-1.3-.7-2-2-2h-2v1h1.8c.6 0 .9.3.9 1zm7.7 8h1.6v-1.7h-1.6zm0-5.4h1.6v-1.7h-1.6zm16.6 5.6c1 0 2-.5 2.4-1.2.2.7.7 1 1.5 1h.6v-1h-.5c-.3 0-.4-.1-.4-.5v-3c0-2-1-3-2.9-3-1.6 0-2.7.9-3 2.3h1.2c.3-.8.8-1.3 1.8-1.3 1.1 0 1.7.6 1.7 2l-2.5.4c-1.6.3-2.3 1-2.3 2.3 0 1.2 1 2 2.4 2zm.1-1c-.8 0-1.3-.5-1.3-1.2 0-.6.3-1 1.3-1.1l2.3-.5v.7c0 1.2-.8 2-2.3 2zm9.4 1c1.7 0 3-.8 3-2.1s-.6-1.9-3-2.2c-1.3-.3-1.8-.5-1.8-1.2s.5-1.2 1.6-1.2c1 0 1.6.6 1.8 1.4l1.2-.1c-.2-1.3-1.1-2.4-3-2.4-1.8 0-2.8 1-2.8 2.3 0 1.2.7 1.8 2.8 2.2 1.6.3 2 .5 2 1.2 0 .6-.7 1-1.8 1s-1.8-.6-2-1.5h-1.2c.1 1.5 1.3 2.6 3.2 2.6zm8 0c1 0 1.9-.5 2.3-1.3v1.1h1v-10h-1.1v3.6a2.6 2.6 0 0 0-2.2-1.2c-2 0-3.2 1.5-3.2 3.9s1.2 3.9 3.2 3.9zm0-1.2c-1.2 0-2-1-2-2.7 0-1.7.8-2.8 2-2.8 1.4 0 2.2 1 2.2 2.8 0 1.7-.8 2.7-2.2 2.7zm7.7-6.9v.5H273v1h2.2v6.4h1.2v-6.4h2.9v-1h-2.9v-.5c0-.6.3-1 1-1h2v-1h-2c-1.5 0-2.2.7-2.2 2z" aria-label="[sudo] password for local: asdf"/><path d="M24.4 152.8c2 0 3.4-1 3.4-2.6 0-1.7-.9-2.5-3.3-3.2-1.9-.5-2.4-.9-2.4-1.8 0-1 .8-1.6 2-1.6 1.4 0 2 .9 2.2 2h1.3c-.2-1.8-1.4-3.2-3.4-3.2s-3.3 1.2-3.3 2.9c0 1.4.8 2.1 2.8 2.7 2.3.7 2.8 1.2 2.8 2.1 0 1-.7 1.5-2.1 1.5-1.4 0-2.3-.8-2.5-2.3l-1.3.1c.2 2 1.7 3.4 3.8 3.4zm8.2 0c2 0 3.4-1.5 3.4-4 0-2.3-1.4-3.8-3.4-3.8s-3.4 1.5-3.4 3.9 1.3 3.9 3.4 3.9zm0-1.2c-1.4 0-2.2-1-2.2-2.7 0-1.7.8-2.8 2.2-2.8 1.4 0 2.2 1 2.2 2.8 0 1.7-.8 2.7-2.2 2.7zm5.5 1h5.4v-1h-2.3V148c0-1.2.6-1.9 1.6-1.9h1.6v-1h-1.6c-.9 0-1.5.4-1.7 1.4l-.1-1.4h-3v1h2v5.4h-2zm8.4 0h5.4v-1h-2.3V148c0-1.2.6-1.9 1.6-1.9h1.6v-1h-1.6c-.9 0-1.5.4-1.7 1.4l-.1-1.4h-3v1h2v5.4h-2zm9 2.1h1c1 0 1.5-.4 1.8-1.2l3-8.3H60l-2.1 6.2-2.3-6.2h-1.2l2.7 7.3h.4l-.2.7c-.2.3-.4.5-1 .5h-.8zm10 0h.7l.8-2.3v-1.5h-1.6v1.7h.7zm18.6-2.1h2v-1h-2c-.7 0-1-.4-1-1v-4.4h3v-1h-3v-2H82v2h-2.5v1H82v4.4c0 1.3.7 2 2 2zm4.4 0h5.4v-1h-2.3V148c0-1.2.6-1.9 1.6-1.9h1.6v-1h-1.6c-.9 0-1.5.4-1.7 1.4l-.1-1.4h-3v1h2v5.4h-2zm9 2.1h1c1 0 1.5-.4 1.8-1.2l3-8.3H102l-2.1 6.2-2.3-6.2h-1.2l2.7 7.3h.4l-.2.7c-.2.3-.4.5-1 .5h-.8zm18.1-2c1 0 2-.4 2.4-1.1.2.7.7 1 1.5 1h.6v-1h-.5c-.3 0-.4-.1-.4-.5v-3c0-2-1-3-2.9-3-1.6 0-2.7.9-3 2.3h1.2c.3-.8.8-1.3 1.8-1.3 1.1 0 1.7.6 1.7 2l-2.5.4c-1.6.3-2.3 1-2.3 2.3 0 1.2 1 2 2.4 2zm.1-1c-.8 0-1.3-.4-1.3-1 0-.7.3-1 1.3-1.2l2.3-.5v.7c0 1.2-.8 2-2.3 2zm9.3 3.2c2 0 3.2-1 3.2-2.8v-7h-1.1v1.3c-.3-.9-1.2-1.4-2.3-1.4-1.8 0-3.2 1.5-3.2 3.6s1.4 3.6 3.3 3.6c1 0 1.8-.5 2.1-1.3v1.2c0 1.1-.7 1.6-2 1.6-1.2 0-1.7-.4-2-1h-1c.3 1.3 1.5 2.2 3 2.2zm0-3.8c-1.3 0-2.1-1-2.1-2.5s.7-2.5 2-2.5 2.2 1 2.1 2.5c0 1.5-.8 2.5-2 2.5zm7.4 1.7c1 0 2-.5 2.4-1.2.2.7.7 1 1.5 1h.6v-1h-.5c-.3 0-.4-.1-.4-.5v-3c0-2-1-3-2.9-3-1.6 0-2.7.9-3 2.3h1.2c.3-.8.8-1.3 1.8-1.3 1.1 0 1.7.6 1.7 2l-2.5.4c-1.6.3-2.3 1-2.3 2.3 0 1.2 1 2 2.4 2zm.1-1c-.8 0-1.3-.5-1.3-1.2 0-.6.3-1 1.3-1.1l2.3-.5v.7c0 1.2-.8 2-2.3 2zm6.2.8h6.7v-1H143v-6.4h-4v1h2.8v5.4h-3zm2.9-8.6h1.2v-1.4h-1.2zm5.7 8.6h1.2v-4.4c0-1.4.8-2.2 2-2.2 1.1 0 1.5.8 1.5 2.2v4.4h1.2v-4.8c0-1.5-.8-2.8-2.5-2.8-1 0-1.9.5-2.2 1.5v-1.3h-1.2zm10.5 0h1.6v-1.7h-1.6z" aria-label="Sorry, try again."/><path d="M26.4 170.7v-1.1h-3v-9.9h3v-1h-4v12zm6.3-1.1c1.7 0 3-.8 3-2.1s-.6-1.9-3-2.2c-1.3-.3-1.8-.5-1.8-1.2s.5-1.2 1.6-1.2c1 0 1.6.6 1.8 1.4l1.2-.1c-.2-1.3-1.1-2.4-3-2.4-1.8 0-2.8 1-2.8 2.3 0 1.2.7 1.8 2.8 2.2 1.6.3 2 .5 2 1.2 0 .6-.7 1-1.8 1s-1.8-.6-2-1.5h-1.2c.1 1.5 1.3 2.6 3.2 2.6zm7.8 0c1 0 1.8-.5 2.2-1.4v1.2H44V162h-1.2v4.4c0 1.3-.7 2.1-1.9 2.1-1 0-1.6-.6-1.6-2V162h-1.1v4.8c0 1.7 1 2.8 2.4 2.8zm8.6 0c1 0 1.9-.5 2.3-1.3v1.1h1v-10h-1.1v3.6a2.6 2.6 0 0 0-2.2-1.2c-2 0-3.2 1.5-3.2 3.9s1.2 3.9 3.2 3.9zm0-1.2c-1.2 0-2-1-2-2.7 0-1.7.8-2.8 2-2.8 1.4 0 2.2 1 2.2 2.8 0 1.7-.8 2.7-2.2 2.7zm8.7 1.2c2 0 3.4-1.5 3.4-4 0-2.3-1.4-3.8-3.4-3.8s-3.4 1.5-3.4 3.9 1.3 3.9 3.4 3.9zm0-1.2c-1.4 0-2.2-1-2.2-2.7 0-1.7.8-2.8 2.2-2.8 1.4 0 2.2 1 2.2 2.8 0 1.7-.8 2.7-2.2 2.7zm6.2 2.3h4v-12h-4v1h3v9.9h-3zm16 .8h1v-3c.4.6 1.2 1 2.2 1 2.2 0 3.2-1.8 3.2-3.8 0-2-1-3.9-3.2-3.9-1 0-1.8.5-2.3 1.4V162h-1zm3.2-3c-1.3 0-2.1-1-2.1-2.8 0-1.8.8-2.8 2.1-2.8s2 1 2 2.8c0 1.7-.7 2.7-2 2.7zm7.2 1c1 0 2-.4 2.4-1.2.2.8.7 1.1 1.5 1.1h.6v-1h-.5c-.3 0-.4-.1-.4-.5v-3c0-2-1-3-2.9-3-1.6 0-2.7.9-3 2.3h1.2c.3-.8.8-1.3 1.8-1.3 1.1 0 1.7.6 1.7 2l-2.5.4c-1.6.3-2.3 1-2.3 2.3 0 1.2 1 2 2.4 2zm.1-1c-.8 0-1.3-.4-1.3-1 0-.7.3-1 1.3-1.2l2.3-.5v.7c0 1.2-.8 2-2.3 2zm9.4 1c1.7 0 3-.7 3-2s-.6-1.9-3-2.2c-1.3-.3-1.8-.5-1.8-1.2s.5-1.2 1.6-1.2c1 0 1.6.6 1.8 1.4l1.2-.1c-.2-1.3-1.1-2.4-3-2.4-1.8 0-2.8 1-2.8 2.3 0 1.2.7 1.8 2.8 2.2 1.6.3 2 .5 2 1.2 0 .6-.7 1-1.8 1s-1.8-.6-2-1.5h-1.2c.1 1.5 1.3 2.6 3.2 2.6zm8.4 0c1.7 0 3-.7 3-2s-.6-1.9-3-2.2c-1.3-.3-1.8-.5-1.8-1.2s.5-1.2 1.6-1.2c1 0 1.6.6 1.8 1.4l1.2-.1c-.2-1.3-1.1-2.4-3-2.4-1.8 0-2.8 1-2.8 2.3 0 1.2.7 1.8 2.8 2.2 1.6.3 2 .5 2 1.2 0 .6-.7 1-1.8 1s-1.8-.6-2-1.5h-1.2c.1 1.5 1.3 2.6 3.2 2.6zm5.9-.1h1.4l1-4.6 1 4.6h1.5l1.4-7.4h-1.3l-1 6.2-1-5.2H116l-1 5.2-1-6.2h-1.3zm10.8.2c2 0 3.4-1.5 3.4-4 0-2.3-1.4-3.8-3.4-3.8s-3.4 1.5-3.4 3.9 1.3 3.9 3.4 3.9zm0-1.2c-1.4 0-2.2-1-2.2-2.7 0-1.7.8-2.8 2.2-2.8 1.4 0 2.2 1 2.2 2.8 0 1.7-.8 2.7-2.2 2.7zm5.5 1h5.4v-1h-2.3v-3.5c0-1.2.6-1.9 1.6-1.9h1.6v-1h-1.6c-.9 0-1.5.4-1.7 1.4l-.1-1.4h-3v1h2v5.4h-2zm11 .2c1 0 1.9-.5 2.3-1.3v1.1h1v-10h-1.1v3.6a2.6 2.6 0 0 0-2.2-1.2c-2 0-3.2 1.5-3.2 3.9s1.2 3.9 3.2 3.9zm0-1.2c-1.2 0-2-1-2-2.7 0-1.7.8-2.8 2-2.8 1.4 0 2.2 1 2.2 2.8 0 1.7-.8 2.7-2.2 2.7zm16.1-6.9v.5h-2.2v1h2.2v6.4h1.2V163h2.9v-1h-2.9v-.5c0-.6.3-1 1-1h2v-1h-2c-1.5 0-2.2.7-2.2 2zm9.4 8c2 0 3.4-1.4 3.4-3.8s-1.4-3.9-3.4-3.9-3.4 1.5-3.4 3.9 1.3 3.9 3.4 3.9zm0-1c-1.4 0-2.2-1-2.2-2.8 0-1.7.8-2.8 2.2-2.8 1.4 0 2.2 1 2.2 2.8 0 1.7-.8 2.7-2.2 2.7zm5.5.9h5.4v-1h-2.3v-3.5c0-1.2.6-1.9 1.6-1.9h1.6v-1h-1.6c-.9 0-1.5.4-1.7 1.4l-.1-1.4h-3v1h2v5.4h-2zm19.6-8v7h-3v1h6.7v-1h-2.5v-6.9c0-1.3-.7-2-2-2h-1.9v1h1.8c.6 0 .9.3.9 1zm8.5 8.2c2 0 3.4-1.5 3.4-4 0-2.3-1.4-3.8-3.4-3.8s-3.4 1.5-3.4 3.9 1.3 3.9 3.4 3.9zm0-1.2c-1.4 0-2.2-1-2.2-2.7 0-1.7.8-2.8 2.2-2.8 1.4 0 2.2 1 2.2 2.8 0 1.7-.8 2.7-2.2 2.7zm8.6 1.2c1.6 0 2.9-1.1 3.2-2.7l-1.3-.1a2 2 0 0 1-1.9 1.6c-1.4 0-2.2-1-2.2-2.7 0-1.7.8-2.8 2.2-2.8 1 0 1.6.6 1.9 1.6l1.2-.1a3 3 0 0 0-3.1-2.6c-2 0-3.4 1.5-3.4 3.9 0 2.3 1.3 3.9 3.4 3.9zm7.2 0c1 0 2-.5 2.4-1.3.2.8.7 1.1 1.5 1.1h.6v-1h-.5c-.3 0-.4-.1-.4-.5v-3c0-2-1-3-2.9-3-1.6 0-2.7.9-3 2.3h1.2c.3-.8.8-1.3 1.8-1.3 1.1 0 1.7.6 1.7 2l-2.5.4c-1.6.3-2.3 1-2.3 2.3 0 1.2 1 2 2.4 2zm.1-1c-.8 0-1.3-.5-1.3-1.2 0-.6.3-1 1.3-1.1l2.3-.5v.7c0 1.2-.8 2-2.3 2zm9.2-7.2v7h-3v1h6.7v-1H227v-6.9c0-1.3-.7-2-2-2h-2v1h1.8c.6 0 .9.3.9 1zm7.7 8h1.6v-1.7h-1.6zm0-5.4h1.6v-1.7h-1.6zm16.6 5.6c1 0 2-.5 2.4-1.3.2.8.7 1.1 1.5 1.1h.6v-1h-.5c-.3 0-.4-.1-.4-.5v-3c0-2-1-3-2.9-3-1.6 0-2.7.9-3 2.3h1.2c.3-.8.8-1.3 1.8-1.3 1.1 0 1.7.6 1.7 2l-2.5.4c-1.6.3-2.3 1-2.3 2.3 0 1.2 1 2 2.4 2zm.1-1c-.8 0-1.3-.5-1.3-1.2 0-.6.3-1 1.3-1.1l2.3-.5v.7c0 1.2-.8 2-2.3 2zm9.4 1c1.7 0 3-.8 3-2.1s-.6-1.9-3-2.2c-1.3-.3-1.8-.5-1.8-1.2s.5-1.2 1.6-1.2c1 0 1.6.6 1.8 1.4l1.2-.1c-.2-1.3-1.1-2.4-3-2.4-1.8 0-2.8 1-2.8 2.3 0 1.2.7 1.8 2.8 2.2 1.6.3 2 .5 2 1.2 0 .6-.7 1-1.8 1s-1.8-.6-2-1.5h-1.2c.1 1.5 1.3 2.6 3.2 2.6zm8 0c1 0 1.9-.5 2.3-1.3v1.1h1v-10h-1.1v3.6a2.6 2.6 0 0 0-2.2-1.2c-2 0-3.2 1.5-3.2 3.9s1.2 3.9 3.2 3.9zm0-1.2c-1.2 0-2-1-2-2.7 0-1.7.8-2.8 2-2.8 1.4 0 2.2 1 2.2 2.8 0 1.7-.8 2.7-2.2 2.7zm7.7-6.9v.5H273v1h2.2v6.4h1.2V163h2.9v-1h-2.9v-.5c0-.6.3-1 1-1h2v-1h-2c-1.5 0-2.2.7-2.2 2z" aria-label="[sudo] password for local: asdf"/><path d="M24.3 203.2c1.7 0 3-.8 3-2.1s-.6-1.9-3-2.2c-1.3-.3-1.8-.5-1.8-1.2s.5-1.2 1.6-1.2c1 0 1.6.6 1.8 1.4l1.2-.1c-.2-1.3-1.1-2.4-3-2.4-1.8 0-2.8 1-2.8 2.3 0 1.2.7 1.8 2.8 2.2 1.6.3 2 .5 2 1.2 0 .6-.7 1-1.8 1s-1.8-.6-2-1.5h-1.2c.1 1.5 1.3 2.6 3.2 2.6zm7.8 0c1 0 1.8-.5 2.2-1.4v1.2h1.2v-7.4h-1.2v4.4c0 1.3-.7 2.1-1.9 2.1-1 0-1.6-.6-1.6-2v-4.5h-1.1v4.8c0 1.7 1 2.8 2.4 2.8zm8.6 0c1 0 1.9-.5 2.3-1.3v1.1h1v-10h-1v3.6a2.6 2.6 0 0 0-2.2-1.2c-2 0-3.2 1.5-3.2 3.9s1.2 3.9 3.2 3.9zm0-1.2c-1.2 0-2-1-2-2.7 0-1.7.8-2.8 2-2.8 1.4 0 2.2 1 2.2 2.8 0 1.7-.8 2.7-2.2 2.7zm8.7 1.2c2 0 3.4-1.5 3.4-4 0-2.3-1.4-3.8-3.4-3.8S46 197 46 199.3s1.3 3.9 3.4 3.9zm0-1.2c-1.4 0-2.2-1-2.2-2.7 0-1.7.8-2.8 2.2-2.8 1.4 0 2.2 1 2.2 2.8 0 1.7-.8 2.7-2.2 2.7zm7.6 1h1.6v-1.7H57zm0-5.4h1.6v-1.7H57zm17.5 5.6c2 0 3.6-1 3.6-3 0-1.2-.8-2.2-2-2.5 1-.4 1.7-1.1 1.7-2.2 0-1.6-1.3-2.7-3.2-2.7-2 0-3 1-3.3 2.5l1.3.1c.1-.9.7-1.4 2-1.4 1.2 0 1.9.6 1.9 1.6 0 1.1-.9 1.5-2 1.5h-.7v1.2h.8c1.3 0 2.2.6 2.2 2 0 1.3-1 1.7-2.3 1.7-1.2 0-2-.4-2.2-1.6h-1.2c0 1.7 1.3 2.8 3.4 2.8zm13.8-.2H95v-1h-2.5v-6.4h-4v1h2.8v5.4h-3zm2.9-8.6h1.2V193h-1.2zm5.7 8.6h1.2v-4.4c0-1.4.8-2.2 2-2.2 1.1 0 1.5.8 1.5 2.2v4.4h1.2v-4.8c0-1.5-.8-2.8-2.5-2.8-1 0-1.9.5-2.2 1.5v-1.3h-1.2zm11.5.2c1.6 0 2.9-1.1 3.2-2.7l-1.3-.1a2 2 0 0 1-1.9 1.6c-1.4 0-2.2-1-2.2-2.7 0-1.7.8-2.8 2.2-2.8 1 0 1.6.6 1.9 1.6l1.2-.1a3 3 0 0 0-3.1-2.6c-2 0-3.4 1.5-3.4 3.9 0 2.3 1.3 3.9 3.4 3.9zm8.2 0c2 0 3.4-1.5 3.4-4 0-2.3-1.4-3.8-3.4-3.8s-3.4 1.5-3.4 3.9 1.3 3.9 3.4 3.9zm0-1.2c-1.4 0-2.2-1-2.2-2.7 0-1.7.8-2.8 2.2-2.8 1.4 0 2.2 1 2.2 2.8 0 1.7-.8 2.7-2.2 2.7zm5.5 1h5.4v-1h-2.3v-3.5c0-1.2.6-1.9 1.6-1.9h1.6v-1h-1.6c-.9 0-1.5.4-1.7 1.4l-.1-1.4h-3v1h2v5.4h-2zm8.4 0h5.4v-1h-2.3v-3.5c0-1.2.6-1.9 1.6-1.9h1.6v-1h-1.6c-.9 0-1.5.4-1.7 1.4l-.1-1.4h-3v1h2v5.4h-2zm11.4.2c1.6 0 2.7-1 3.1-2.3l-1.2-.1c-.3.8-1 1.2-1.9 1.2-1.3 0-2-.7-2.1-2.3h5.4v-.4c0-2.5-1.4-3.9-3.3-3.9-2 0-3.4 1.5-3.4 3.9 0 2.3 1.3 3.9 3.4 3.9zm2-4.6h-4.1c.2-1.4 1-2 2-2 1.2 0 2 .6 2 2zm6.5 4.6c1.6 0 2.9-1.1 3.2-2.7l-1.3-.1a2 2 0 0 1-1.9 1.6c-1.4 0-2.2-1-2.2-2.7 0-1.7.8-2.8 2.2-2.8 1 0 1.6.6 1.9 1.6l1.2-.1a3 3 0 0 0-3.1-2.6c-2 0-3.4 1.5-3.4 3.9 0 2.3 1.3 3.9 3.4 3.9zm9.3-.2h2v-1h-2c-.7 0-1-.4-1-1v-4.4h3v-1h-3v-2h-1.1v2H155v1h2.5v4.4c0 1.3.7 2 2 2zm12.6 2.1h1.2v-3c.4.6 1.2 1 2.2 1 2.2 0 3.2-1.8 3.2-3.8 0-2-1-3.9-3.2-3.9-1 0-1.8.5-2.3 1.4v-1.2h-1zm3.3-3c-1.3 0-2.1-1-2.1-2.8 0-1.8.8-2.8 2.1-2.8s2 1 2 2.8c0 1.7-.7 2.7-2 2.7zm7.2 1c1 0 2-.4 2.4-1.1.2.7.7 1 1.5 1h.6v-1h-.5c-.3 0-.4-.1-.4-.5v-3c0-2-1-3-2.9-3-1.6 0-2.7.9-3 2.3h1.2c.3-.8.8-1.3 1.8-1.3 1.1 0 1.7.6 1.7 2l-2.5.4c-1.6.3-2.3 1-2.3 2.3 0 1.2 1 2 2.4 2zm.1-1c-.8 0-1.3-.4-1.3-1 0-.7.3-1 1.3-1.2l2.3-.5v.7c0 1.2-.8 2-2.3 2zm9.4 1c1.7 0 3-.7 3-2s-.6-1.9-3-2.2c-1.3-.3-1.8-.5-1.8-1.2s.5-1.2 1.6-1.2c1 0 1.6.6 1.8 1.4l1.2-.1c-.2-1.3-1.1-2.4-3-2.4-1.8 0-2.8 1-2.8 2.3 0 1.2.7 1.8 2.8 2.2 1.6.3 2 .5 2 1.2 0 .6-.7 1-1.8 1s-1.8-.6-2-1.5h-1.2c.1 1.5 1.3 2.6 3.2 2.6zm8.4 0c1.7 0 3-.7 3-2s-.6-1.9-3-2.2c-1.3-.3-1.8-.5-1.8-1.2s.5-1.2 1.6-1.2c1 0 1.6.6 1.8 1.4l1.2-.1c-.2-1.3-1.1-2.4-3-2.4-1.8 0-2.8 1-2.8 2.3 0 1.2.7 1.8 2.8 2.2 1.6.3 2 .5 2 1.2 0 .6-.7 1-1.8 1s-1.8-.6-2-1.5h-1.2c.1 1.5 1.3 2.6 3.2 2.6zm5.9-.1h1.4l1-4.6 1 4.6h1.5l1.4-7.4h-1.3l-1 6.2-1-5.2h-1.2l-1 5.2-1-6.2H205zm10.8.2c2 0 3.4-1.5 3.4-4 0-2.3-1.4-3.8-3.4-3.8s-3.4 1.5-3.4 3.9 1.3 3.9 3.4 3.9zm0-1.2c-1.4 0-2.2-1-2.2-2.7 0-1.7.8-2.8 2.2-2.8 1.4 0 2.2 1 2.2 2.8 0 1.7-.8 2.7-2.2 2.7zm5.5 1h5.4v-1H226v-3.5c0-1.2.6-1.9 1.6-1.9h1.6v-1h-1.6c-.9 0-1.5.4-1.7 1.4l-.1-1.4h-3v1h2v5.4h-2zm11 .2c1 0 1.9-.5 2.3-1.3v1.1h1v-10h-1.1v3.6a2.6 2.6 0 0 0-2.2-1.2c-2 0-3.2 1.5-3.2 3.9s1.2 3.9 3.2 3.9zm0-1.2c-1.2 0-2-1-2-2.7 0-1.7.8-2.8 2-2.8 1.4 0 2.2 1 2.2 2.8 0 1.7-.8 2.7-2.2 2.7zm16.1 1.2c1 0 2-.5 2.4-1.2.2.7.7 1 1.5 1h.6v-1h-.5c-.3 0-.4-.1-.4-.5v-3c0-2-1-3-2.9-3-1.6 0-2.7.9-3 2.3h1.2c.3-.8.8-1.3 1.8-1.3 1.1 0 1.7.6 1.7 2l-2.5.4c-1.6.3-2.3 1-2.3 2.3 0 1.2 1 2 2.4 2zm.1-1c-.8 0-1.3-.5-1.3-1.2 0-.6.3-1 1.3-1.1l2.3-.5v.7c0 1.2-.8 2-2.3 2zm10.4.8h2v-1h-2c-.7 0-1-.4-1-1v-4.4h3v-1h-3v-2h-1.1v2h-2.5v1h2.5v4.4c0 1.3.7 2 2 2zm8.4 0h2v-1h-2c-.7 0-1-.4-1-1v-4.4h3v-1h-3v-2h-1.1v2h-2.5v1h2.5v4.4c0 1.3.7 2 2 2zm7.4.2c1.6 0 2.7-1 3.1-2.3l-1.2-.1c-.3.8-1 1.2-1.9 1.2-1.3 0-2-.7-2.1-2.3h5.4v-.4c0-2.5-1.4-3.9-3.3-3.9-2 0-3.4 1.5-3.4 3.9 0 2.3 1.3 3.9 3.4 3.9zm2-4.6h-4.1c.2-1.4 1-2 2-2 1.2 0 2 .6 2 2zm2.7 4.4h1.1v-4.7c0-1.3.5-1.9 1-1.9.7 0 1 .6 1 1.8v4.8h1v-4.7c0-1.3.5-1.9 1.1-1.9.6 0 .9.5.9 1.8v4.8h1.1v-4.9c0-1.9-.5-2.7-1.7-2.7-.8 0-1.3.6-1.6 1.5-.1-1-.6-1.5-1.4-1.5-.7 0-1.2.5-1.4 1.3v-1.1H281zm9 2.1h1.1v-3c.4.6 1.2 1 2.2 1 2.2 0 3.2-1.8 3.2-3.8 0-2-1-3.9-3.2-3.9-1 0-1.8.5-2.3 1.4v-1.2h-1zm3.2-3c-1.3 0-2.1-1-2.1-2.8 0-1.8.8-2.8 2.1-2.8s2 1 2 2.8c0 1.7-.7 2.7-2 2.7zm9.3.9h2v-1h-2c-.7 0-1-.4-1-1v-4.4h3v-1h-3v-2h-1.1v2h-2.5v1h2.5v4.4c0 1.3.7 2 2 2zm7.4.2c1.7 0 3-.8 3-2.1s-.6-1.9-3-2.2c-1.3-.3-1.8-.5-1.8-1.2s.5-1.2 1.6-1.2c1 0 1.6.6 1.8 1.4l1.2-.1c-.2-1.3-1.1-2.4-3-2.4-1.8 0-2.8 1-2.8 2.3 0 1.2.7 1.8 2.8 2.2 1.6.3 2 .5 2 1.2 0 .6-.7 1-1.8 1s-1.8-.6-2-1.5h-1.2c.1 1.5 1.3 2.6 3.2 2.6z" aria-label="sudo: 3 incorrect password attempts"/><g aria-label="local@livecd 1 ~$ exploit [02/28 19:55:48]"><path fill="#ffd75f" d="M24.1 228.6v7h-3v1h6.7v-1h-2.5v-6.9c0-1.3-.7-2-2-2h-1.9v1h1.8c.6 0 .9.3.9 1zm8.5 8.2c2 0 3.4-1.5 3.4-4 0-2.3-1.4-3.8-3.4-3.8s-3.4 1.5-3.4 3.9 1.3 3.9 3.4 3.9zm0-1.2c-1.4 0-2.2-1-2.2-2.7 0-1.7.8-2.8 2.2-2.8 1.4 0 2.2 1 2.2 2.8 0 1.7-.8 2.7-2.2 2.7zm8.6 1.2c1.6 0 2.9-1.1 3.2-2.7L43 234a2 2 0 0 1-1.9 1.6c-1.4 0-2.2-1-2.2-2.7 0-1.7.8-2.8 2.2-2.8 1 0 1.6.6 1.9 1.6l1.2-.1a3 3 0 0 0-3.1-2.6c-2 0-3.4 1.5-3.4 3.9 0 2.3 1.3 3.9 3.4 3.9zm7.2 0c1 0 2-.5 2.4-1.2.2.7.7 1 1.5 1h.6v-1h-.5c-.3 0-.4-.1-.4-.5v-3c0-2-1-3-2.9-3-1.6 0-2.7.9-3 2.3h1.2c.3-.8.8-1.3 1.8-1.3 1.1 0 1.7.6 1.7 2l-2.5.4c-1.6.3-2.3 1-2.3 2.3 0 1.2 1 2 2.4 2zm.1-1c-.8 0-1.3-.5-1.3-1.2 0-.6.3-1 1.3-1.1l2.3-.5v.7c0 1.2-.8 2-2.3 2zm9.2-7.2v7h-3v1h6.7v-1H59v-6.9c0-1.3-.7-2-2-2h-2v1h1.8c.6 0 .9.3.9 1z"/><path fill="#5f5f5f" d="m68 237-.4-.9a4 4 0 0 1-1.7.5c-1.5 0-2.6-1.3-2.6-3.9 0-2.4 1-5 3.4-5 1.4 0 2.4 1.6 2.4 4 0 1.9-.4 2.9-.8 2.9-.3 0-.5-.6-.4-1.6l.3-3.3h-1v.5a1 1 0 0 0-1.1-.6c-1.5 0-2.2 2.1-2.2 3.6 0 1.3.7 2.3 1.6 2.3.7 0 1.2-.5 1.5-1.2.1.8.6 1.2 1.1 1.2 1.2 0 2-1.7 2-3.8 0-3-1.4-5-3.4-5-3 0-4.4 3.1-4.4 6 0 3.1 1.6 4.9 3.5 4.9.8 0 1.5-.2 2.2-.6zm-2.2-2.4c-.5 0-.7-.6-.7-1.6 0-.8.3-2.6 1.1-2.6.5 0 .8.6.8 1.5 0 .7-.2 2.7-1.2 2.7z"/><path fill="#5fd7ff" d="M74.5 228.6v7h-3v1h6.7v-1h-2.5v-6.9c0-1.3-.7-2-2-2h-1.9v1h1.8c.6 0 .9.3.9 1zm5.4 8h6.7v-1h-2.5v-6.4h-4v1h2.8v5.4h-3zm2.9-8.6H84v-1.4h-1.2zm7.9 8.6H92l2.7-7.4h-1.2l-2.2 6.2-2.2-6.2H88zm9.2.2c1.6 0 2.7-1 3.1-2.3l-1.2-.1c-.3.8-1 1.2-1.9 1.2-1.3 0-2-.7-2.1-2.3h5.4v-.4c0-2.5-1.4-3.9-3.3-3.9-2 0-3.4 1.5-3.4 3.9 0 2.3 1.3 3.9 3.4 3.9zm2-4.6h-4.1c.2-1.4 1-2 2-2 1.2 0 2 .6 2 2zm6.5 4.6c1.6 0 2.9-1.1 3.2-2.7l-1.3-.1a2 2 0 0 1-1.9 1.6c-1.4 0-2.2-1-2.2-2.7 0-1.7.8-2.8 2.2-2.8 1 0 1.6.6 1.9 1.6l1.2-.1a3 3 0 0 0-3.1-2.6c-2 0-3.4 1.5-3.4 3.9 0 2.3 1.3 3.9 3.4 3.9zm7.9 0c1 0 1.9-.5 2.3-1.3v1.1h1v-10h-1.1v3.6a2.6 2.6 0 0 0-2.2-1.2c-2 0-3.2 1.5-3.2 3.9s1.2 3.9 3.2 3.9zm0-1.2c-1.2 0-2-1-2-2.7 0-1.7.8-2.8 2-2.8 1.4 0 2.2 1 2.2 2.8 0 1.7-.8 2.7-2.2 2.7z"/><path fill="#d75f5f" d="M130 236.6h6.8v-1.1h-2.4v-8.8h-1c0 1-.4 1.5-1.5 1.5h-1.3v1h2.6v6.3H130z"/><path d="M147 233.3h1.3c0-1 .2-1.6.7-1.6.9 0 .7 1.6 2.3 1.6 1.6 0 2-1.6 2-2.7H152c0 1-.3 1.6-.8 1.6-.8 0-.7-1.6-2.3-1.6-1.5 0-2 1.6-2 2.7z"/><path fill="#00ff5f" d="M158.1 237.9h1v-1c1.9-.2 3.1-1.3 3.1-2.7 0-1.6-.8-2.5-3-3.1v-3.4c1 .2 1.4 1 1.6 2l1.2-.1c-.2-1.7-1.1-2.9-2.8-3.1v-1.2h-1v1.2c-1.8.1-2.9 1.2-2.9 2.8 0 1.4.8 2.1 2.8 2.7v3.6c-1-.3-1.6-1-1.8-2.3l-1.2.1a3.5 3.5 0 0 0 3 3.4zm-1.5-8.7c0-.8.6-1.4 1.5-1.6v3.1c-1.2-.4-1.5-.7-1.5-1.5zm2.6 6.4v-3.3c1.4.5 1.8 1 1.8 1.8 0 1-.7 1.5-1.8 1.5z"/><path fill="#33a2e6" d="M175.5 236.8c1.6 0 2.7-1 3.1-2.3l-1.2-.1c-.3.8-1 1.2-1.9 1.2-1.3 0-2-.7-2.1-2.3h5.4v-.4c0-2.5-1.4-3.9-3.3-3.9-2 0-3.4 1.5-3.4 3.9 0 2.3 1.3 3.9 3.4 3.9zm2-4.6h-4.1c.2-1.4 1-2 2-2 1.2 0 2 .6 2 2zm2.9 4.4h1.4l2-3 2 3h1.4l-2.7-3.8 2.6-3.6h-1.4l-1.9 2.8-2-2.8h-1.3l2.6 3.6zm8.7 2.1h1.2v-3c.4.6 1.2 1 2.2 1 2.2 0 3.2-1.8 3.2-3.8 0-2-1-3.9-3.2-3.9-1 0-1.8.5-2.3 1.4v-1.2h-1zm3.3-3c-1.3 0-2.1-1-2.1-2.8 0-1.8.8-2.8 2.1-2.8s2 1 2 2.8c0 1.7-.7 2.7-2 2.7zm8.1-7v6.9h-3v1h6.7v-1h-2.5v-6.9c0-1.3-.7-2-2-2h-1.9v1h1.8c.6 0 .9.3.9 1zm8.5 8c2 0 3.4-1.4 3.4-3.8S211 229 209 229s-3.4 1.5-3.4 3.9 1.3 3.9 3.4 3.9zm0-1c-1.4 0-2.2-1-2.2-2.8 0-1.7.8-2.8 2.2-2.8 1.4 0 2.2 1 2.2 2.8 0 1.7-.8 2.7-2.2 2.7zm5.3.9h6.7v-1h-2.5v-6.4h-4v1h2.8v5.4h-3zm2.9-8.6h1.2v-1.4h-1.2zm9.7 8.6h2v-1h-2c-.7 0-1-.4-1-1v-4.4h3v-1h-3v-2h-1.1v2h-2.5v1h2.5v4.4c0 1.3.7 2 2 2z"/><path fill="#5f5f5f" d="M555.6 237.9v-1.1h-3v-9.9h3v-1h-4v12z"/><path fill="#d7875f" d="M561.8 236.8c2.2 0 3.5-2 3.5-5.2s-1.3-5.2-3.5-5.2-3.5 2-3.5 5.2c0 3.3 1.3 5.2 3.5 5.2zm0-1.2c-.5 0-1-.2-1.3-.5l3.2-5.8c.2.6.3 1.4.3 2.3 0 2.5-.8 4-2.2 4zm-2.2-4c0-2.4.8-4 2.2-4 .5 0 1 .2 1.3.6l-3.2 5.8c-.2-.6-.3-1.4-.3-2.4zm7.1 5h7v-1.2h-5.5c0-.7 1-1.8 2.8-2.7 2-1.1 2.7-1.9 2.7-3.4 0-1.7-1.2-2.9-3.3-2.9-2.1 0-3.4 1.3-3.6 3.2l1.2.1c.2-1.3 1-2 2.4-2s2 .6 2 1.6-.5 1.5-1.9 2.2c-3 1.6-3.8 3-3.8 5.1zm9.2 1.5h1.1l4.3-12h-1.1zm7.6-1.5h7v-1.2H585c0-.7 1-1.8 2.8-2.7 2-1.1 2.7-1.9 2.7-3.4 0-1.7-1.2-2.9-3.3-2.9-2.1 0-3.4 1.3-3.6 3.2l1.2.1c.2-1.3 1-2 2.4-2s2 .6 2 1.6-.5 1.5-1.9 2.2c-3 1.6-3.8 3-3.8 5.1zm11.9.2c2 0 3.5-1 3.5-3 0-1.2-.7-2.1-2-2.5 1-.4 1.5-1 1.5-2.1 0-1.6-1.2-2.8-3-2.8s-3 1.2-3 2.8c0 1 .5 1.7 1.4 2-1.2.5-1.9 1.4-1.9 2.7 0 1.9 1.5 3 3.5 3zm0-1.2c-1.3 0-2.2-.5-2.2-1.8 0-1.2.7-2 2.2-2 1.5 0 2.2.8 2.2 2 0 1.3-.9 1.8-2.2 1.8zm0-4.8c-1 0-1.8-.6-1.8-1.6s.7-1.6 1.8-1.6c1 0 1.8.6 1.8 1.6s-.7 1.6-1.8 1.6z"/><path fill="#d75f5f" d="M608.8 236.6h6.8v-1.1h-2.4v-8.8h-1c0 1-.4 1.5-1.5 1.5h-1.3v1h2.6v6.3h-3.2zm11.8-10.2c-2 0-3.5 1.4-3.5 3.6 0 2 1.3 3.4 3.2 3.4a3 3 0 0 0 2.5-1.3c-.2 2.4-1.1 3.5-2.6 3.5-1.1 0-1.6-.5-1.8-1.2H617c.4 1.5 1.3 2.4 3 2.4 3 0 4-2.7 4-6 0-2.8-1.3-4.4-3.5-4.4zm0 1.2c1.3 0 2.2 1 2.2 2.4 0 1.3-1 2.2-2.4 2.2-1.2 0-2-.9-2-2.2 0-1.5.8-2.4 2.1-2.4zm7.6 9h1.6v-1.7h-1.6zm0-5.4h1.6v-1.7h-1.6zm9.2 5.6c2 0 3.4-1.4 3.4-3.4s-1.3-3.4-3.2-3.4a3 3 0 0 0-2 .8l.4-3h4.2v-1.1h-5.3l-.7 5.5h1.3c.3-.7 1.1-1 1.9-1 1.3 0 2.1.8 2.1 2.2 0 1.4-.8 2.2-2.1 2.2-1.2 0-2-.5-2.1-1.6H634c.2 1.7 1.4 2.8 3.4 2.8zm8.4 0c2 0 3.4-1.4 3.4-3.4s-1.3-3.4-3.2-3.4a3 3 0 0 0-2 .8l.4-3h4.2v-1.1h-5.3l-.7 5.5h1.3c.3-.7 1.1-1 1.9-1 1.3 0 2.1.8 2.1 2.2 0 1.4-.8 2.2-2.1 2.2-1.2 0-2-.5-2.1-1.6h-1.3c.2 1.7 1.4 2.8 3.4 2.8zm7.6-.2h1.6v-1.7h-1.6zm0-5.4h1.6v-1.7h-1.6zm10.4 5.4h1.2v-2.2h1.2v-1.1H665v-6.6h-1.3l-4.7 6.7v1h4.8zm-3.4-3.3 3.4-4.8v4.8zm10.6 3.5c2 0 3.5-1 3.5-3 0-1.2-.7-2.1-2-2.5 1-.4 1.5-1 1.5-2.1 0-1.6-1.2-2.8-3-2.8s-3 1.2-3 2.8c0 1 .5 1.7 1.4 2-1.2.5-1.9 1.4-1.9 2.7 0 1.9 1.5 3 3.5 3zm0-1.2c-1.3 0-2.2-.5-2.2-1.8 0-1.2.7-2 2.2-2 1.5 0 2.2.8 2.2 2 0 1.3-.9 1.8-2.2 1.8zm0-4.8c-1 0-1.8-.6-1.8-1.6s.7-1.6 1.8-1.6c1 0 1.8.6 1.8 1.6s-.7 1.6-1.8 1.6z"/><path fill="#5f5f5f" d="M677.2 237.9h4v-12h-4v1h3v9.9h-3z"/></g><g aria-label="local@livecd ~$ cat - | sudo -s [02/28 19:55:50]"><path fill="#ffd75f" d="M24.1 245.4v7h-3v1h6.7v-1h-2.5v-6.9c0-1.3-.7-2-2-2h-1.9v1h1.8c.6 0 .9.3.9 1zm8.5 8.2c2 0 3.4-1.5 3.4-4 0-2.3-1.4-3.8-3.4-3.8s-3.4 1.5-3.4 3.9 1.3 3.9 3.4 3.9zm0-1.2c-1.4 0-2.2-1-2.2-2.7 0-1.7.8-2.8 2.2-2.8 1.4 0 2.2 1 2.2 2.8 0 1.7-.8 2.7-2.2 2.7zm8.6 1.2c1.6 0 2.9-1.1 3.2-2.7l-1.3-.1a2 2 0 0 1-1.9 1.6c-1.4 0-2.2-1-2.2-2.7 0-1.7.8-2.8 2.2-2.8 1 0 1.6.6 1.9 1.6l1.2-.1a3 3 0 0 0-3.1-2.6c-2 0-3.4 1.5-3.4 3.9 0 2.3 1.3 3.9 3.4 3.9zm7.2 0c1 0 2-.5 2.4-1.3.2.8.7 1.1 1.5 1.1h.6v-1h-.5c-.3 0-.4-.1-.4-.5v-3c0-2-1-3-2.9-3-1.6 0-2.7.9-3 2.3h1.2c.3-.8.8-1.3 1.8-1.3 1.1 0 1.7.6 1.7 2l-2.5.4c-1.6.3-2.3 1-2.3 2.3 0 1.2 1 2 2.4 2zm.1-1c-.8 0-1.3-.5-1.3-1.2 0-.6.3-1 1.3-1.1l2.3-.5v.7c0 1.2-.8 2-2.3 2zm9.2-7.2v7h-3v1h6.7v-1H59v-6.9c0-1.3-.7-2-2-2h-2v1h1.8c.6 0 .9.3.9 1z"/><path fill="#5f5f5f" d="m68 253.8-.4-.9a4 4 0 0 1-1.7.5c-1.5 0-2.6-1.3-2.6-3.9 0-2.4 1-5 3.4-5 1.4 0 2.4 1.6 2.4 4 0 1.9-.4 2.9-.8 2.9-.3 0-.5-.6-.4-1.6l.3-3.3h-1v.5a1 1 0 0 0-1.1-.6c-1.5 0-2.2 2.1-2.2 3.6 0 1.3.7 2.3 1.6 2.3.7 0 1.2-.5 1.5-1.2.1.8.6 1.2 1.1 1.2 1.2 0 2-1.7 2-3.8 0-3-1.4-5-3.4-5-3 0-4.4 3.1-4.4 6 0 3.1 1.6 4.9 3.5 4.9.8 0 1.5-.2 2.2-.6zm-2.2-2.4c-.5 0-.7-.6-.7-1.6 0-.8.3-2.6 1.1-2.6.5 0 .8.6.8 1.5 0 .7-.2 2.7-1.2 2.7z"/><path fill="#5fd7ff" d="M74.5 245.4v7h-3v1h6.7v-1h-2.5v-6.9c0-1.3-.7-2-2-2h-1.9v1h1.8c.6 0 .9.3.9 1zm5.4 8h6.7v-1h-2.5V246h-4v1h2.8v5.4h-3zm2.9-8.6H84v-1.4h-1.2zm7.9 8.6H92l2.7-7.4h-1.2l-2.2 6.2-2.2-6.2H88zm9.2.2c1.6 0 2.7-1 3.1-2.3l-1.2-.1c-.3.8-1 1.2-1.9 1.2-1.3 0-2-.8-2.1-2.3h5.4v-.4c0-2.5-1.4-3.9-3.3-3.9-2 0-3.4 1.5-3.4 3.9 0 2.3 1.3 3.9 3.4 3.9zm2-4.6h-4.1c.2-1.4 1-2 2-2 1.2 0 2 .6 2 2zm6.5 4.6c1.6 0 2.9-1.1 3.2-2.7l-1.3-.1a2 2 0 0 1-1.9 1.6c-1.4 0-2.2-1-2.2-2.7 0-1.7.8-2.8 2.2-2.8 1 0 1.6.6 1.9 1.6l1.2-.1a3 3 0 0 0-3.1-2.6c-2 0-3.4 1.5-3.4 3.9 0 2.3 1.3 3.9 3.4 3.9zm7.9 0c1 0 1.9-.5 2.3-1.3v1.1h1v-10h-1.1v3.6a2.6 2.6 0 0 0-2.2-1.2c-2 0-3.2 1.5-3.2 3.9s1.2 3.9 3.2 3.9zm0-1.2c-1.2 0-2-1-2-2.7 0-1.7.8-2.8 2-2.8 1.4 0 2.2 1 2.2 2.8 0 1.7-.8 2.7-2.2 2.7z"/><path d="M130.3 250.1h1.2c0-1 .2-1.6.7-1.6.9 0 .7 1.6 2.3 1.6 1.6 0 2-1.6 2-2.7h-1.2c0 1-.3 1.6-.8 1.6-.8 0-.7-1.6-2.3-1.6-1.5 0-2 1.6-2 2.7z"/><path fill="#00ff5f" d="M141.3 254.7h1v-1c1.9-.2 3.1-1.3 3.1-2.7 0-1.6-.8-2.5-3-3.1v-3.4c1 .2 1.4 1 1.6 2l1.2-.1c-.2-1.7-1.1-2.9-2.8-3.1V242h-1v1.2c-1.8.1-2.9 1.2-2.9 2.8 0 1.4.8 2.1 2.8 2.7v3.6c-1-.3-1.6-1-1.8-2.3l-1.2.1a3.5 3.5 0 0 0 3 3.4zm-1.5-8.7c0-.8.6-1.4 1.5-1.6v3.1c-1.2-.4-1.5-.7-1.5-1.5zm2.6 6.4v-3.3c1.4.5 1.8 1 1.8 1.8 0 1-.7 1.4-1.8 1.5z"/><path fill="#33a2e6" d="M158.8 253.6c1.6 0 2.9-1.1 3.2-2.7l-1.3-.1a2 2 0 0 1-1.9 1.6c-1.4 0-2.2-1-2.2-2.7 0-1.7.8-2.8 2.2-2.8 1 0 1.6.6 1.9 1.6l1.2-.1a3 3 0 0 0-3.1-2.6c-2 0-3.4 1.5-3.4 3.9 0 2.3 1.3 3.9 3.4 3.9zm7.2 0c1 0 2-.5 2.4-1.3.2.8.7 1.1 1.5 1.1h.6v-1h-.5c-.3 0-.4-.1-.4-.5v-3c0-2-1-3-2.9-3-1.6 0-2.7.9-3 2.3h1.2c.3-.8.8-1.3 1.8-1.3 1.1 0 1.7.6 1.7 2l-2.5.4c-1.6.3-2.3 1-2.3 2.3 0 1.2 1 2 2.4 2zm.1-1c-.8 0-1.3-.5-1.3-1.2 0-.6.3-1 1.3-1.1l2.3-.5v.7c0 1.2-.8 2-2.3 2zm10.4.8h2v-1h-2c-.7 0-1-.4-1-1V247h3v-1h-3v-2h-1.1v2h-2.5v1h2.5v4.4c0 1.3.7 2 2 2z"/><path fill="#e6e6e6" d="M190.1 249.9h4.2v-1.1h-4.2zm18.3 4.8h1.2v-12h-1.2z"/><path fill="#33a2e6" d="M226 253.6c1.6 0 2.9-.8 2.9-2.1s-.6-1.9-3-2.2c-1.3-.3-1.8-.5-1.8-1.2s.5-1.2 1.6-1.2c1 0 1.6.6 1.8 1.4l1.2-.1c-.2-1.3-1.1-2.4-3-2.4-1.8 0-2.8 1-2.8 2.3 0 1.2.7 1.8 2.8 2.2 1.6.3 2 .5 2 1.2 0 .6-.7 1-1.8 1s-1.8-.6-2-1.5h-1.2c.1 1.5 1.3 2.6 3.2 2.6zm7.7 0c1 0 1.8-.5 2.2-1.4v1.2h1.2V246h-1.2v4.4c0 1.3-.7 2.1-1.9 2.1-1 0-1.6-.6-1.6-2V246h-1.1v4.8c0 1.7 1 2.8 2.4 2.8zm8.6 0c1 0 1.9-.5 2.3-1.3v1.1h1v-10h-1.1v3.6a2.6 2.6 0 0 0-2.2-1.2c-2 0-3.2 1.5-3.2 3.9s1.2 3.9 3.2 3.9zm0-1.2c-1.2 0-2-1-2-2.7 0-1.7.8-2.8 2-2.8 1.4 0 2.2 1 2.2 2.8 0 1.7-.8 2.7-2.2 2.7zm8.7 1.2c2 0 3.4-1.5 3.4-4 0-2.3-1.4-3.8-3.4-3.8s-3.4 1.5-3.4 3.9 1.3 3.9 3.4 3.9zm0-1.2c-1.4 0-2.2-1-2.2-2.7 0-1.7.8-2.8 2.2-2.8 1.4 0 2.2 1 2.2 2.8 0 1.7-.8 2.7-2.2 2.7z"/><path fill="#e6e6e6" d="M265.7 249.9h4.2v-1.1h-4.2zm10.6 3.7c1.7 0 3-.8 3-2.1s-.6-1.9-3-2.2c-1.3-.3-1.8-.5-1.8-1.2s.5-1.2 1.6-1.2c1 0 1.6.6 1.8 1.4l1.2-.1c-.2-1.3-1.1-2.4-3-2.4-1.8 0-2.8 1-2.8 2.3 0 1.2.7 1.8 2.8 2.2 1.6.3 2 .5 2 1.2 0 .6-.7 1-1.8 1s-1.8-.6-2-1.5h-1.2c.1 1.5 1.3 2.6 3.2 2.6z"/><path fill="#5f5f5f" d="M555.6 254.7v-1.1h-3v-9.9h3v-1h-4v12z"/><path fill="#d7875f" d="M561.8 253.6c2.2 0 3.5-2 3.5-5.2s-1.3-5.2-3.5-5.2-3.5 2-3.5 5.2c0 3.3 1.3 5.2 3.5 5.2zm0-1.2c-.5 0-1-.2-1.3-.5l3.2-5.9c.2.7.3 1.5.3 2.4 0 2.5-.8 4-2.2 4zm-2.2-4c0-2.4.8-4 2.2-4 .5 0 1 .2 1.3.6l-3.2 5.8c-.2-.6-.3-1.4-.3-2.4zm7.1 5h7v-1.2h-5.5c0-.7 1-1.8 2.8-2.7 2-1.1 2.7-1.9 2.7-3.4 0-1.7-1.2-2.9-3.3-2.9-2.1 0-3.4 1.3-3.6 3.2l1.2.1c.2-1.3 1-2 2.4-2s2 .6 2 1.6-.5 1.5-1.9 2.2c-3 1.6-3.8 3-3.8 5.1zm9.2 1.5h1.1l4.3-12h-1.1zm7.6-1.5h7v-1.2H585c0-.7 1-1.8 2.8-2.7 2-1.1 2.7-1.9 2.7-3.4 0-1.7-1.2-2.9-3.3-2.9-2.1 0-3.4 1.3-3.6 3.2l1.2.1c.2-1.3 1-2 2.4-2s2 .6 2 1.6-.5 1.5-1.9 2.2c-3 1.6-3.8 3-3.8 5.1zm11.9.2c2 0 3.5-1 3.5-3 0-1.2-.7-2.1-2-2.5 1-.4 1.5-1 1.5-2.1 0-1.6-1.2-2.8-3-2.8s-3 1.2-3 2.8c0 1 .5 1.7 1.4 2-1.2.5-1.9 1.4-1.9 2.7 0 1.9 1.5 3 3.5 3zm0-1.2c-1.3 0-2.2-.5-2.2-1.8 0-1.2.7-2 2.2-2 1.5 0 2.2.8 2.2 2 0 1.3-.9 1.8-2.2 1.8zm0-4.8c-1 0-1.8-.6-1.8-1.6s.7-1.6 1.8-1.6c1 0 1.8.6 1.8 1.6s-.7 1.6-1.8 1.6z"/><path fill="#d75f5f" d="M608.8 253.4h6.8v-1.1h-2.4v-8.8h-1c0 1-.4 1.5-1.5 1.5h-1.3v1h2.6v6.3h-3.2zm11.8-10.2c-2 0-3.5 1.4-3.5 3.6 0 2 1.3 3.4 3.2 3.4a3 3 0 0 0 2.5-1.3c-.2 2.4-1.1 3.5-2.6 3.5-1.1 0-1.6-.5-1.8-1.2H617c.4 1.5 1.3 2.4 3 2.4 3 0 4-2.7 4-6 0-2.8-1.3-4.4-3.5-4.4zm0 1.2c1.3 0 2.2 1 2.2 2.4 0 1.3-1 2.2-2.4 2.2-1.2 0-2-.9-2-2.2 0-1.5.8-2.4 2.1-2.4zm7.6 9h1.6v-1.7h-1.6zm0-5.4h1.6v-1.7h-1.6zm9.2 5.6c2 0 3.4-1.4 3.4-3.4s-1.3-3.4-3.2-3.4a3 3 0 0 0-2 .8l.4-3h4.2v-1.1h-5.3l-.7 5.5h1.3c.3-.7 1.1-1 1.9-1 1.3 0 2.1.8 2.1 2.2 0 1.4-.8 2.2-2.1 2.2-1.2 0-2-.5-2.1-1.6H634c.2 1.7 1.4 2.8 3.4 2.8zm8.4 0c2 0 3.4-1.4 3.4-3.4s-1.3-3.4-3.2-3.4a3 3 0 0 0-2 .8l.4-3h4.2v-1.1h-5.3l-.7 5.5h1.3c.3-.7 1.1-1 1.9-1 1.3 0 2.1.8 2.1 2.2 0 1.4-.8 2.2-2.1 2.2-1.2 0-2-.5-2.1-1.6h-1.3c.2 1.7 1.4 2.8 3.4 2.8zm7.6-.2h1.6v-1.7h-1.6zm0-5.4h1.6v-1.7h-1.6zm9.2 5.6c2 0 3.4-1.4 3.4-3.4s-1.3-3.4-3.2-3.4a3 3 0 0 0-2 .8l.4-3h4.2v-1.1H660l-.7 5.5h1.3c.3-.7 1.1-1 1.9-1 1.3 0 2.1.8 2.1 2.2 0 1.4-.8 2.2-2.1 2.2-1.2 0-2-.5-2.1-1.6h-1.3c.2 1.7 1.4 2.8 3.4 2.8zm8.4 0c2.2 0 3.5-2 3.5-5.2s-1.3-5.2-3.5-5.2-3.5 2-3.5 5.2c0 3.3 1.3 5.2 3.5 5.2zm0-1.2c-.5 0-1-.2-1.3-.5l3.2-5.9c.2.7.3 1.5.3 2.4 0 2.5-.8 4-2.2 4zm-2.2-4c0-2.4.8-4 2.2-4 .5 0 1 .2 1.3.6l-3.2 5.8c-.2-.6-.3-1.4-.3-2.4z"/><path fill="#5f5f5f" d="M677.2 254.7h4v-12h-4v1h3v9.9h-3z"/></g><path d="M26.4 271.5v-1.1h-3v-9.9h3v-1h-4v12zm6.3-1.1c1.7 0 3-.8 3-2.1s-.6-1.9-3-2.2c-1.3-.3-1.8-.5-1.8-1.2s.5-1.2 1.6-1.2c1 0 1.6.6 1.8 1.4l1.2-.1c-.2-1.3-1.1-2.4-3-2.4-1.8 0-2.8 1-2.8 2.3 0 1.2.7 1.8 2.8 2.2 1.6.3 2 .5 2 1.2 0 .6-.7 1-1.8 1s-1.8-.6-2-1.5h-1.2c.1 1.5 1.3 2.6 3.2 2.6zm7.8 0c1 0 1.8-.5 2.2-1.4v1.2H44v-7.4h-1.2v4.4c0 1.3-.7 2.1-1.9 2.1-1 0-1.6-.6-1.6-2v-4.5h-1.1v4.8c0 1.7 1 2.8 2.4 2.8zm8.6 0c1 0 1.9-.5 2.3-1.3v1.1h1v-10h-1.1v3.6a2.6 2.6 0 0 0-2.2-1.2c-2 0-3.2 1.5-3.2 3.9s1.2 3.9 3.2 3.9zm0-1.2c-1.2 0-2-1-2-2.7 0-1.7.8-2.8 2-2.8 1.4 0 2.2 1 2.2 2.8 0 1.7-.8 2.7-2.2 2.7zm8.7 1.2c2 0 3.4-1.5 3.4-4 0-2.3-1.4-3.8-3.4-3.8s-3.4 1.5-3.4 3.9 1.3 3.9 3.4 3.9zm0-1.2c-1.4 0-2.2-1-2.2-2.7 0-1.7.8-2.8 2.2-2.8 1.4 0 2.2 1 2.2 2.8 0 1.7-.8 2.7-2.2 2.7zm6.2 2.3h4v-12h-4v1h3v9.9h-3zm16 .8h1v-3c.4.6 1.2 1 2.2 1 2.2 0 3.2-1.8 3.2-3.8 0-2-1-3.9-3.2-3.9-1 0-1.8.5-2.3 1.4v-1.2h-1zm3.2-3c-1.3 0-2.1-1-2.1-2.8 0-1.8.8-2.8 2.1-2.8s2 1 2 2.8c0 1.7-.7 2.7-2 2.7zm7.2 1c1 0 2-.4 2.4-1.1.2.7.7 1 1.5 1h.6v-1h-.5c-.3 0-.4-.1-.4-.5v-3c0-2-1-3-2.9-3-1.6 0-2.7.9-3 2.3h1.2c.3-.8.8-1.3 1.8-1.3 1.1 0 1.7.6 1.7 2l-2.5.4c-1.6.3-2.3 1-2.3 2.3 0 1.2 1 2 2.4 2zm.1-1c-.8 0-1.3-.4-1.3-1 0-.7.3-1 1.3-1.2l2.3-.5v.7c0 1.2-.8 2-2.3 2zm9.4 1c1.7 0 3-.7 3-2s-.6-1.9-3-2.2c-1.3-.3-1.8-.5-1.8-1.2s.5-1.2 1.6-1.2c1 0 1.6.6 1.8 1.4l1.2-.1c-.2-1.3-1.1-2.4-3-2.4-1.8 0-2.8 1-2.8 2.3 0 1.2.7 1.8 2.8 2.2 1.6.3 2 .5 2 1.2 0 .6-.7 1-1.8 1s-1.8-.6-2-1.5h-1.2c.1 1.5 1.3 2.6 3.2 2.6zm8.4 0c1.7 0 3-.7 3-2s-.6-1.9-3-2.2c-1.3-.3-1.8-.5-1.8-1.2s.5-1.2 1.6-1.2c1 0 1.6.6 1.8 1.4l1.2-.1c-.2-1.3-1.1-2.4-3-2.4-1.8 0-2.8 1-2.8 2.3 0 1.2.7 1.8 2.8 2.2 1.6.3 2 .5 2 1.2 0 .6-.7 1-1.8 1s-1.8-.6-2-1.5h-1.2c.1 1.5 1.3 2.6 3.2 2.6zm5.9-.1h1.4l1-4.6 1 4.6h1.5l1.4-7.4h-1.3l-1 6.2-1-5.2H116l-1 5.2-1-6.2h-1.3zm10.8.2c2 0 3.4-1.5 3.4-4 0-2.3-1.4-3.8-3.4-3.8s-3.4 1.5-3.4 3.9 1.3 3.9 3.4 3.9zm0-1.2c-1.4 0-2.2-1-2.2-2.7 0-1.7.8-2.8 2.2-2.8 1.4 0 2.2 1 2.2 2.8 0 1.7-.8 2.7-2.2 2.7zm5.5 1h5.4v-1h-2.3v-3.5c0-1.2.6-1.9 1.6-1.9h1.6v-1h-1.6c-.9 0-1.5.4-1.7 1.4l-.1-1.4h-3v1h2v5.4h-2zm11 .2c1 0 1.9-.5 2.3-1.3v1.1h1v-10h-1.1v3.6a2.6 2.6 0 0 0-2.2-1.2c-2 0-3.2 1.5-3.2 3.9s1.2 3.9 3.2 3.9zm0-1.2c-1.2 0-2-1-2-2.7 0-1.7.8-2.8 2-2.8 1.4 0 2.2 1 2.2 2.8 0 1.7-.8 2.7-2.2 2.7zm16.1-6.9v.5h-2.2v1h2.2v6.4h1.2v-6.4h2.9v-1h-2.9v-.5c0-.6.3-1 1-1h2v-1h-2c-1.5 0-2.2.7-2.2 2zm9.4 8c2 0 3.4-1.4 3.4-3.8s-1.4-3.9-3.4-3.9-3.4 1.5-3.4 3.9 1.3 3.9 3.4 3.9zm0-1c-1.4 0-2.2-1-2.2-2.8 0-1.7.8-2.8 2.2-2.8 1.4 0 2.2 1 2.2 2.8 0 1.7-.8 2.7-2.2 2.7zm5.5.9h5.4v-1h-2.3v-3.5c0-1.2.6-1.9 1.6-1.9h1.6v-1h-1.6c-.9 0-1.5.4-1.7 1.4l-.1-1.4h-3v1h2v5.4h-2zm19.6-8v7h-3v1h6.7v-1h-2.5v-6.9c0-1.3-.7-2-2-2h-1.9v1h1.8c.6 0 .9.3.9 1zm8.5 8.2c2 0 3.4-1.5 3.4-4 0-2.3-1.4-3.8-3.4-3.8s-3.4 1.5-3.4 3.9 1.3 3.9 3.4 3.9zm0-1.2c-1.4 0-2.2-1-2.2-2.7 0-1.7.8-2.8 2.2-2.8 1.4 0 2.2 1 2.2 2.8 0 1.7-.8 2.7-2.2 2.7zm8.6 1.2c1.6 0 2.9-1.1 3.2-2.7l-1.3-.1a2 2 0 0 1-1.9 1.6c-1.4 0-2.2-1-2.2-2.7 0-1.7.8-2.8 2.2-2.8 1 0 1.6.6 1.9 1.6l1.2-.1a3 3 0 0 0-3.1-2.6c-2 0-3.4 1.5-3.4 3.9 0 2.3 1.3 3.9 3.4 3.9zm7.2 0c1 0 2-.5 2.4-1.2.2.7.7 1 1.5 1h.6v-1h-.5c-.3 0-.4-.1-.4-.5v-3c0-2-1-3-2.9-3-1.6 0-2.7.9-3 2.3h1.2c.3-.8.8-1.3 1.8-1.3 1.1 0 1.7.6 1.7 2l-2.5.4c-1.6.3-2.3 1-2.3 2.3 0 1.2 1 2 2.4 2zm.1-1c-.8 0-1.3-.5-1.3-1.2 0-.6.3-1 1.3-1.1l2.3-.5v.7c0 1.2-.8 2-2.3 2zm9.2-7.2v7h-3v1h6.7v-1H227v-6.9c0-1.3-.7-2-2-2h-2v1h1.8c.6 0 .9.3.9 1zm7.7 8h1.6v-1.7h-1.6zm0-5.4h1.6v-1.7h-1.6zm16.6 5.6c1 0 2-.5 2.4-1.2.2.7.7 1 1.5 1h.6v-1h-.5c-.3 0-.4-.1-.4-.5v-3c0-2-1-3-2.9-3-1.6 0-2.7.9-3 2.3h1.2c.3-.8.8-1.3 1.8-1.3 1.1 0 1.7.6 1.7 2l-2.5.4c-1.6.3-2.3 1-2.3 2.3 0 1.2 1 2 2.4 2zm.1-1c-.8 0-1.3-.5-1.3-1.2 0-.6.3-1 1.3-1.1l2.3-.5v.7c0 1.2-.8 2-2.3 2zm9.4 1c1.7 0 3-.8 3-2.1s-.6-1.9-3-2.2c-1.3-.3-1.8-.5-1.8-1.2s.5-1.2 1.6-1.2c1 0 1.6.6 1.8 1.4l1.2-.1c-.2-1.3-1.1-2.4-3-2.4-1.8 0-2.8 1-2.8 2.3 0 1.2.7 1.8 2.8 2.2 1.6.3 2 .5 2 1.2 0 .6-.7 1-1.8 1s-1.8-.6-2-1.5h-1.2c.1 1.5 1.3 2.6 3.2 2.6zm8 0c1 0 1.9-.5 2.3-1.3v1.1h1v-10h-1.1v3.6a2.6 2.6 0 0 0-2.2-1.2c-2 0-3.2 1.5-3.2 3.9s1.2 3.9 3.2 3.9zm0-1.2c-1.2 0-2-1-2-2.7 0-1.7.8-2.8 2-2.8 1.4 0 2.2 1 2.2 2.8 0 1.7-.8 2.7-2.2 2.7zm7.7-6.9v.5H273v1h2.2v6.4h1.2v-6.4h2.9v-1h-2.9v-.5c0-.6.3-1 1-1h2v-1h-2c-1.5 0-2.2.7-2.2 2z" aria-label="[sudo] password for local: asdf"/><g aria-label="root@livecd ~# [02/28 19:55:59]"><path fill="#ffd75f" d="M21.3 303.8h5.4v-1h-2.3v-3.5c0-1.2.6-1.9 1.6-1.9h1.6v-1H26c-.9 0-1.5.4-1.7 1.4l-.1-1.4h-3v1h2v5.4h-2Zm11.3.2c2 0 3.4-1.5 3.4-4 0-2.3-1.4-3.8-3.4-3.8s-3.4 1.5-3.4 3.9 1.3 3.9 3.4 3.9zm0-1.2c-1.4 0-2.2-1-2.2-2.7 0-1.7.8-2.8 2.2-2.8 1.4 0 2.2 1 2.2 2.8 0 1.7-.8 2.7-2.2 2.7zM41 304c2 0 3.4-1.5 3.4-4 0-2.3-1.4-3.8-3.4-3.8s-3.4 1.5-3.4 3.9S39 304 41 304zm0-1.2c-1.4 0-2.2-1-2.2-2.7 0-1.7.8-2.8 2.2-2.8 1.4 0 2.2 1 2.2 2.8 0 1.7-.8 2.7-2.2 2.7zm9.5 1h2v-1h-2c-.7 0-1-.4-1-1v-4.4h3v-1h-3v-2h-1.1v2h-2.5v1h2.5v4.4c0 1.3.7 2 2 2z"/><path fill="#5f5f5f" d="m59.6 304.2-.4-.9a4 4 0 0 1-1.7.5c-1.5 0-2.6-1.3-2.6-3.9 0-2.4 1-5 3.4-5 1.4 0 2.4 1.6 2.4 4 0 1.9-.4 2.9-.8 2.9-.3 0-.5-.6-.4-1.6l.3-3.3h-1v.5a1 1 0 0 0-1.1-.6c-1.5 0-2.2 2.1-2.2 3.6 0 1.3.7 2.3 1.6 2.3.7 0 1.2-.5 1.5-1.2.1.8.6 1.2 1.1 1.2 1.2 0 2-1.7 2-3.8 0-3-1.4-5-3.4-5-3 0-4.4 3.1-4.4 6 0 3.1 1.6 4.9 3.5 4.9.8 0 1.5-.2 2.2-.6zm-2.2-2.4c-.5 0-.7-.6-.7-1.6 0-.8.3-2.6 1.1-2.6.5 0 .8.6.8 1.5 0 .7-.2 2.7-1.2 2.7z"/><path fill="#5fd7ff" d="M66.1 295.8v7h-3v1h6.7v-1h-2.5v-6.9c0-1.3-.7-2-2-2h-1.9v1h1.8c.6 0 .9.3.9 1zm5.4 8h6.7v-1h-2.5v-6.4h-4v1h2.8v5.4h-3zm2.9-8.6h1.2v-1.4h-1.2zm7.9 8.6h1.4l2.7-7.4h-1.2l-2.2 6.2-2.2-6.2h-1.2zm9.2.2c1.6 0 2.7-1 3.1-2.3l-1.2-.1c-.3.8-1 1.2-1.9 1.2-1.3 0-2-.8-2.1-2.3h5.4v-.4c0-2.5-1.4-3.9-3.3-3.9-2 0-3.4 1.5-3.4 3.9 0 2.3 1.3 3.9 3.4 3.9zm2-4.6h-4.1c.2-1.4 1-2 2-2 1.2 0 2 .6 2 2zm6.5 4.6c1.6 0 2.9-1.1 3.2-2.7l-1.3-.1a2 2 0 0 1-1.9 1.6c-1.4 0-2.2-1-2.2-2.7 0-1.7.8-2.8 2.2-2.8 1 0 1.6.6 1.9 1.6l1.2-.1a3 3 0 0 0-3.1-2.6c-2 0-3.4 1.5-3.4 3.9 0 2.3 1.3 3.9 3.4 3.9zm7.9 0c1 0 1.9-.5 2.3-1.3v1.1h1v-10h-1.1v3.6a2.6 2.6 0 0 0-2.2-1.2c-2 0-3.2 1.5-3.2 3.9s1.2 3.9 3.2 3.9zm0-1.2c-1.2 0-2-1-2-2.7 0-1.7.8-2.8 2-2.8 1.4 0 2.2 1 2.2 2.8 0 1.7-.8 2.7-2.2 2.7z"/><path d="M121.9 300.5h1.2c0-1 .2-1.6.7-1.6.9 0 .7 1.6 2.3 1.6 1.6 0 2-1.6 2-2.7h-1.2c0 1-.3 1.6-.8 1.6-.8 0-.7-1.6-2.3-1.6-1.5 0-2 1.6-2 2.7z"/><path fill="red" d="M133.4 303.8h1l.5-2.8h1.2l.2-1H135l.4-2.4h1.2l.1-1h-1.1l.5-2.7h-1l-.5 2.8h-1.8l.6-2.8h-1l-.6 2.8h-1.2l-.2 1h1.2l-.4 2.4H130l-.1 1h1.1l-.5 2.7h1l.5-2.8h1.8zm-1-3.7.4-2.5h1.7l-.4 2.5z"/><path fill="#5f5f5f" d="M555.6 305v-1h-3v-10h3v-1h-4v12z"/><path fill="#d7875f" d="M561.8 304c2.2 0 3.5-2 3.5-5.2s-1.3-5.2-3.5-5.2-3.5 2-3.5 5.2c0 3.3 1.3 5.2 3.5 5.2zm0-1.2c-.5 0-1-.2-1.3-.5l3.2-5.9c.2.7.3 1.5.3 2.4 0 2.5-.8 4-2.2 4zm-2.2-4c0-2.4.8-4 2.2-4 .5 0 1 .2 1.3.6l-3.2 5.8c-.2-.6-.3-1.4-.3-2.4zm7.1 5h7v-1.2h-5.5c0-.7 1-1.8 2.8-2.7 2-1.1 2.7-1.9 2.7-3.4 0-1.7-1.2-2.9-3.3-2.9-2.1 0-3.4 1.3-3.6 3.2l1.2.1c.2-1.3 1-2 2.4-2s2 .6 2 1.6-.5 1.5-1.9 2.2c-3 1.6-3.8 3-3.8 5.1zm9.2 1.5h1.1l4.3-12h-1.1zm7.6-1.5h7v-1.2H585c0-.7 1-1.8 2.8-2.7 2-1.1 2.7-1.9 2.7-3.4 0-1.7-1.2-2.9-3.3-2.9-2.1 0-3.4 1.3-3.6 3.2l1.2.1c.2-1.3 1-2 2.4-2s2 .6 2 1.6-.5 1.5-1.9 2.2c-3 1.6-3.8 3-3.8 5.1zm11.9.2c2 0 3.5-1 3.5-3 0-1.2-.7-2.1-2-2.5 1-.4 1.5-1 1.5-2.1 0-1.6-1.2-2.8-3-2.8s-3 1.2-3 2.8c0 1 .5 1.7 1.4 2-1.2.5-1.9 1.4-1.9 2.7 0 1.9 1.5 3 3.5 3zm0-1.2c-1.3 0-2.2-.5-2.2-1.8 0-1.2.7-2 2.2-2 1.5 0 2.2.8 2.2 2 0 1.3-.9 1.8-2.2 1.8zm0-4.8c-1 0-1.8-.6-1.8-1.6s.7-1.6 1.8-1.6c1 0 1.8.6 1.8 1.6s-.7 1.6-1.8 1.6z"/><path fill="#d75f5f" d="M608.8 303.8h6.8v-1.1h-2.4v-8.8h-1c0 1-.4 1.5-1.5 1.5h-1.3v1h2.6v6.3h-3.2zm11.8-10.2c-2 0-3.5 1.4-3.5 3.6 0 2 1.3 3.4 3.2 3.4a3 3 0 0 0 2.5-1.3c-.2 2.4-1.1 3.5-2.6 3.5-1.1 0-1.6-.5-1.8-1.2H617c.4 1.5 1.3 2.4 3 2.4 3 0 4-2.7 4-6 0-2.8-1.3-4.4-3.5-4.4zm0 1.2c1.3 0 2.2 1 2.2 2.4 0 1.3-1 2.2-2.4 2.2-1.2 0-2-.9-2-2.2 0-1.5.8-2.4 2.1-2.4zm7.6 9h1.6v-1.7h-1.6zm0-5.4h1.6v-1.7h-1.6zm9.2 5.6c2 0 3.4-1.4 3.4-3.4s-1.3-3.4-3.2-3.4a3 3 0 0 0-2 .8l.4-3h4.2v-1h-5.3l-.7 5.5h1.3c.3-.7 1.1-1 1.9-1 1.3 0 2.1.8 2.1 2.2 0 1.4-.8 2.2-2.1 2.2-1.2 0-2-.5-2.1-1.6H634c.2 1.7 1.4 2.8 3.4 2.8zm8.4 0c2 0 3.4-1.4 3.4-3.4s-1.3-3.4-3.2-3.4a3 3 0 0 0-2 .8l.4-3h4.2v-1h-5.3l-.7 5.5h1.3c.3-.7 1.1-1 1.9-1 1.3 0 2.1.8 2.1 2.2 0 1.4-.8 2.2-2.1 2.2-1.2 0-2-.5-2.1-1.6h-1.3c.2 1.7 1.4 2.8 3.4 2.8zm7.6-.2h1.6v-1.7h-1.6zm0-5.4h1.6v-1.7h-1.6zm9.2 5.6c2 0 3.4-1.4 3.4-3.4s-1.3-3.4-3.2-3.4a3 3 0 0 0-2 .8l.4-3h4.2v-1H660l-.7 5.5h1.3c.3-.7 1.1-1 1.9-1 1.3 0 2.1.8 2.1 2.2 0 1.4-.8 2.2-2.1 2.2-1.2 0-2-.5-2.1-1.6h-1.3c.2 1.7 1.4 2.8 3.4 2.8zm8.4-10.4c-2 0-3.5 1.4-3.5 3.6 0 2 1.3 3.4 3.2 3.4a3 3 0 0 0 2.5-1.3c-.2 2.4-1.1 3.5-2.6 3.5-1.1 0-1.6-.5-1.8-1.2h-1.3c.4 1.5 1.3 2.4 3 2.4 3 0 4-2.7 4-6 0-2.8-1.3-4.4-3.5-4.4zm0 1.2c1.3 0 2.2 1 2.2 2.4 0 1.3-1 2.2-2.4 2.2-1.2 0-2-.9-2-2.2 0-1.5.8-2.4 2.1-2.4z"/><path fill="#5f5f5f" d="M677.2 305h4v-12h-4v1.1h3v9.9h-3z"/></g></g><svg><circle cx="13.5" cy="12" r="5.5" fill="#FF5A54"/><circle cx="32.5" cy="12" r="5.5" fill="#E6BF29"/><circle cx="51.5" cy="12" r="5.5" fill="#52C12B"/></svg></svg>