<svg xmlns="http://www.w3.org/2000/svg" viewBox="0 0 32 32"><rect width="100%" height="100%" fill="#1a1b1f" rx="10%"/><path fill="#ddd" d="M10.18 26.14q.9-.84 1.4-2.05.53-1.2.53-2.77V4.24H5.36v2.21h4.42v14.79q0 1.03-.33 1.84-.34.82-.9 1.35-.59.56-1.43.87-.8.3-1.76.36v2.21q1.43-.03 2.66-.47 1.26-.45 2.16-1.26m14.75-3.53q.79-.73 1.23-1.74.48-1 .48-2.27 0-2.04-.73-3.22-.73-1.17-1.9-1.73-1.29-.62-2.69-1.01-1.4-.42-2.4-.95-.65-.37-1.04-.87-.4-.53-.4-1.37 0-.62.17-1.15.2-.56.56-.98.4-.45 1.01-.7.62-.28 1.46-.28t1.54.17 1.23.39v1.65h2.21V5.81q-.67-.56-1.37-.9-.67-.33-1.32-.5-.64-.17-1.23-.23t-1.1-.05q-1.53 0-2.6.47-1.06.48-1.7 1.24-.65.75-.93 1.68t-.25 1.84q.03 1.74.7 2.7.7.94 1.74 1.48 1 .53 2.18.84t2.18.72q.65.31 1.12.68.5.33.87.92.23.36.28.87.09.5.09 1 0 .82-.31 1.43-.31.62-.81 1.04-.54.4-1.2.62-.68.2-1.4.2-1.27 0-2.28-.4-1-.42-1.73-.98v-2.5h-2.21v3.26q.36.56 1 1.06.68.5 1.52.9.84.39 1.84.64 1.01.22 2.08.22 1.17 0 2.24-.36 1.06-.4 1.87-1.1"/></svg>
